<svg width="590" height="648" viewBox="0 0 590 648" fill="none" xmlns="http://www.w3.org/2000/svg">
<g filter="url(#filter0_ddd_1246_3851)">
<g clip-path="url(#clip0_1246_3851)">
<g filter="url(#filter1_ddd_1246_3851)">
<rect width="542" height="601" transform="translate(24 9)" fill="#F8F4F0"/>
<path d="M294.839 309.838V153C311.297 153 327.652 155.59 343.305 160.676L294.839 309.838Z" fill="#30D6B0" stroke="white"/>
<path d="M294.839 309.839L343.305 160.677C425.685 187.444 470.768 275.925 444.001 358.305C428.487 406.052 391.052 443.487 343.305 459.001L294.839 309.839Z" fill="#F8870D" stroke="white"/>
<path d="M294.838 309.839L343.304 459.001C260.924 485.768 172.443 440.685 145.676 358.305L294.838 309.839Z" fill="#FDBC1F" stroke="white"/>
<path d="M294.838 309.839L145.676 358.305C135.441 326.805 135.441 292.873 145.676 261.373L294.838 309.839Z" fill="#F8870D" fill-opacity="0.1" stroke="white"/>
<path d="M294.838 309.838L145.676 261.373C166.672 196.752 226.892 153 294.838 153V309.838Z" fill="#51B960" stroke="white"/>
<path d="M463.824 255V243.8H468.016C468.965 243.8 469.781 243.955 470.464 244.264C471.147 244.563 471.669 245 472.032 245.576C472.405 246.141 472.592 246.829 472.592 247.64C472.592 248.429 472.405 249.112 472.032 249.688C471.669 250.253 471.147 250.691 470.464 251C469.781 251.299 468.965 251.448 468.016 251.448H464.48L465.008 250.904V255H463.824ZM471.472 255L468.592 250.936H469.872L472.768 255H471.472ZM465.008 251L464.48 250.44H467.984C469.104 250.44 469.952 250.195 470.528 249.704C471.115 249.213 471.408 248.525 471.408 247.64C471.408 246.744 471.115 246.051 470.528 245.56C469.952 245.069 469.104 244.824 467.984 244.824H464.48L465.008 244.264V251ZM478.619 255.08C477.904 255.08 477.28 254.947 476.747 254.68C476.213 254.413 475.797 254.013 475.499 253.48C475.211 252.947 475.067 252.28 475.067 251.48V246.6H476.203V251.352C476.203 252.248 476.421 252.925 476.859 253.384C477.307 253.832 477.931 254.056 478.731 254.056C479.317 254.056 479.824 253.939 480.251 253.704C480.688 253.459 481.019 253.107 481.243 252.648C481.477 252.189 481.595 251.64 481.595 251V246.6H482.731V255H481.642V252.696L481.819 253.112C481.552 253.731 481.136 254.216 480.571 254.568C480.016 254.909 479.365 255.08 478.619 255.08ZM490.185 246.52C490.867 246.52 491.465 246.653 491.977 246.92C492.499 247.176 492.905 247.571 493.193 248.104C493.491 248.637 493.641 249.309 493.641 250.12V255H492.505V250.232C492.505 249.347 492.281 248.68 491.833 248.232C491.395 247.773 490.777 247.544 489.977 247.544C489.379 247.544 488.857 247.667 488.409 247.912C487.971 248.147 487.63 248.493 487.385 248.952C487.15 249.4 487.033 249.944 487.033 250.584V255H485.897V246.6H486.985V248.904L486.809 248.472C487.075 247.864 487.502 247.389 488.089 247.048C488.675 246.696 489.374 246.52 490.185 246.52ZM500.997 246.52C501.68 246.52 502.277 246.653 502.789 246.92C503.312 247.176 503.717 247.571 504.005 248.104C504.304 248.637 504.453 249.309 504.453 250.12V255H503.317V250.232C503.317 249.347 503.093 248.68 502.645 248.232C502.208 247.773 501.589 247.544 500.789 247.544C500.192 247.544 499.669 247.667 499.221 247.912C498.784 248.147 498.442 248.493 498.197 248.952C497.962 249.4 497.845 249.944 497.845 250.584V255H496.709V246.6H497.797V248.904L497.621 248.472C497.888 247.864 498.314 247.389 498.901 247.048C499.488 246.696 500.186 246.52 500.997 246.52ZM507.522 255V246.6H508.658V255H507.522ZM508.098 244.744C507.863 244.744 507.666 244.664 507.506 244.504C507.346 244.344 507.266 244.152 507.266 243.928C507.266 243.704 507.346 243.517 507.506 243.368C507.666 243.208 507.863 243.128 508.098 243.128C508.332 243.128 508.53 243.203 508.69 243.352C508.85 243.501 508.93 243.688 508.93 243.912C508.93 244.147 508.85 244.344 508.69 244.504C508.54 244.664 508.343 244.744 508.098 244.744ZM516.106 246.52C516.789 246.52 517.386 246.653 517.898 246.92C518.421 247.176 518.826 247.571 519.114 248.104C519.413 248.637 519.562 249.309 519.562 250.12V255H518.426V250.232C518.426 249.347 518.202 248.68 517.754 248.232C517.317 247.773 516.698 247.544 515.898 247.544C515.301 247.544 514.778 247.667 514.33 247.912C513.893 248.147 513.552 248.493 513.306 248.952C513.072 249.4 512.954 249.944 512.954 250.584V255H511.818V246.6H512.906V248.904L512.73 248.472C512.997 247.864 513.424 247.389 514.01 247.048C514.597 246.696 515.296 246.52 516.106 246.52ZM526.215 258.184C525.447 258.184 524.711 258.072 524.007 257.848C523.303 257.624 522.732 257.304 522.295 256.888L522.871 256.024C523.266 256.376 523.751 256.653 524.327 256.856C524.914 257.069 525.532 257.176 526.183 257.176C527.25 257.176 528.034 256.925 528.535 256.424C529.036 255.933 529.287 255.165 529.287 254.12V252.024L529.447 250.584L529.335 249.144V246.6H530.423V253.976C530.423 255.427 530.066 256.488 529.351 257.16C528.647 257.843 527.602 258.184 526.215 258.184ZM526.007 254.68C525.207 254.68 524.487 254.509 523.847 254.168C523.207 253.816 522.7 253.331 522.327 252.712C521.964 252.093 521.783 251.384 521.783 250.584C521.783 249.784 521.964 249.08 522.327 248.472C522.7 247.853 523.207 247.373 523.847 247.032C524.487 246.691 525.207 246.52 526.007 246.52C526.754 246.52 527.426 246.675 528.023 246.984C528.62 247.293 529.095 247.752 529.447 248.36C529.799 248.968 529.975 249.709 529.975 250.584C529.975 251.459 529.799 252.2 529.447 252.808C529.095 253.416 528.62 253.88 528.023 254.2C527.426 254.52 526.754 254.68 526.007 254.68ZM526.119 253.672C526.738 253.672 527.287 253.544 527.767 253.288C528.247 253.021 528.626 252.659 528.903 252.2C529.18 251.731 529.319 251.192 529.319 250.584C529.319 249.976 529.18 249.443 528.903 248.984C528.626 248.525 528.247 248.168 527.767 247.912C527.287 247.645 526.738 247.512 526.119 247.512C525.511 247.512 524.962 247.645 524.471 247.912C523.991 248.168 523.612 248.525 523.335 248.984C523.068 249.443 522.935 249.976 522.935 250.584C522.935 251.192 523.068 251.731 523.335 252.2C523.612 252.659 523.991 253.021 524.471 253.288C524.962 253.544 525.511 253.672 526.119 253.672ZM468.688 274.096C467.845 274.096 467.067 273.957 466.352 273.68C465.637 273.392 465.019 272.992 464.496 272.48C463.973 271.968 463.563 271.365 463.264 270.672C462.976 269.979 462.832 269.221 462.832 268.4C462.832 267.579 462.976 266.821 463.264 266.128C463.563 265.435 463.973 264.832 464.496 264.32C465.029 263.808 465.653 263.413 466.368 263.136C467.083 262.848 467.861 262.704 468.704 262.704C469.515 262.704 470.277 262.843 470.992 263.12C471.707 263.387 472.309 263.792 472.8 264.336L472.048 265.088C471.589 264.619 471.083 264.283 470.528 264.08C469.973 263.867 469.376 263.76 468.736 263.76C468.064 263.76 467.44 263.877 466.864 264.112C466.288 264.336 465.787 264.661 465.36 265.088C464.933 265.504 464.597 265.995 464.352 266.56C464.117 267.115 464 267.728 464 268.4C464 269.072 464.117 269.691 464.352 270.256C464.597 270.811 464.933 271.301 465.36 271.728C465.787 272.144 466.288 272.469 466.864 272.704C467.44 272.928 468.064 273.04 468.736 273.04C469.376 273.04 469.973 272.933 470.528 272.72C471.083 272.507 471.589 272.165 472.048 271.696L472.8 272.448C472.309 272.992 471.707 273.403 470.992 273.68C470.277 273.957 469.509 274.096 468.688 274.096ZM478.133 274.08C477.322 274.08 476.592 273.899 475.941 273.536C475.301 273.163 474.794 272.656 474.421 272.016C474.048 271.365 473.861 270.624 473.861 269.792C473.861 268.949 474.048 268.208 474.421 267.568C474.794 266.928 475.301 266.427 475.941 266.064C476.581 265.701 477.312 265.52 478.133 265.52C478.965 265.52 479.701 265.701 480.341 266.064C480.992 266.427 481.498 266.928 481.861 267.568C482.234 268.208 482.421 268.949 482.421 269.792C482.421 270.624 482.234 271.365 481.861 272.016C481.498 272.656 480.992 273.163 480.341 273.536C479.69 273.899 478.954 274.08 478.133 274.08ZM478.133 273.072C478.741 273.072 479.28 272.939 479.749 272.672C480.218 272.395 480.586 272.011 480.853 271.52C481.13 271.019 481.269 270.443 481.269 269.792C481.269 269.131 481.13 268.555 480.853 268.064C480.586 267.573 480.218 267.195 479.749 266.928C479.28 266.651 478.746 266.512 478.149 266.512C477.552 266.512 477.018 266.651 476.549 266.928C476.08 267.195 475.706 267.573 475.429 268.064C475.152 268.555 475.013 269.131 475.013 269.792C475.013 270.443 475.152 271.019 475.429 271.52C475.706 272.011 476.08 272.395 476.549 272.672C477.018 272.939 477.546 273.072 478.133 273.072ZM486.996 274.08C486.303 274.08 485.647 273.984 485.028 273.792C484.41 273.589 483.924 273.339 483.572 273.04L484.084 272.144C484.426 272.4 484.863 272.624 485.396 272.816C485.93 272.997 486.49 273.088 487.076 273.088C487.876 273.088 488.452 272.965 488.804 272.72C489.156 272.464 489.332 272.128 489.332 271.712C489.332 271.403 489.231 271.163 489.028 270.992C488.836 270.811 488.58 270.677 488.26 270.592C487.94 270.496 487.583 270.416 487.188 270.352C486.794 270.288 486.399 270.213 486.004 270.128C485.62 270.043 485.268 269.92 484.948 269.76C484.628 269.589 484.367 269.36 484.164 269.072C483.972 268.784 483.876 268.4 483.876 267.92C483.876 267.461 484.004 267.051 484.26 266.688C484.516 266.325 484.89 266.043 485.38 265.84C485.882 265.627 486.49 265.52 487.204 265.52C487.748 265.52 488.292 265.595 488.836 265.744C489.38 265.883 489.828 266.069 490.18 266.304L489.684 267.216C489.311 266.96 488.911 266.779 488.484 266.672C488.058 266.555 487.631 266.496 487.204 266.496C486.447 266.496 485.887 266.629 485.524 266.896C485.172 267.152 484.996 267.483 484.996 267.888C484.996 268.208 485.092 268.459 485.284 268.64C485.487 268.821 485.748 268.965 486.068 269.072C486.399 269.168 486.756 269.248 487.14 269.312C487.535 269.376 487.924 269.456 488.308 269.552C488.703 269.637 489.06 269.76 489.38 269.92C489.711 270.069 489.972 270.288 490.164 270.576C490.367 270.853 490.468 271.221 490.468 271.68C490.468 272.171 490.33 272.597 490.052 272.96C489.786 273.312 489.391 273.589 488.868 273.792C488.356 273.984 487.732 274.08 486.996 274.08ZM495.209 274.08C494.419 274.08 493.811 273.867 493.385 273.44C492.958 273.013 492.745 272.411 492.745 271.632V263.744H493.881V271.568C493.881 272.059 494.003 272.437 494.249 272.704C494.505 272.971 494.867 273.104 495.337 273.104C495.838 273.104 496.254 272.96 496.585 272.672L496.985 273.488C496.761 273.691 496.489 273.84 496.169 273.936C495.859 274.032 495.539 274.08 495.209 274.08ZM491.241 266.544V265.6H496.441V266.544H491.241ZM501.309 274.08C500.615 274.08 499.959 273.984 499.341 273.792C498.722 273.589 498.237 273.339 497.885 273.04L498.397 272.144C498.738 272.4 499.175 272.624 499.709 272.816C500.242 272.997 500.802 273.088 501.389 273.088C502.189 273.088 502.765 272.965 503.117 272.72C503.469 272.464 503.645 272.128 503.645 271.712C503.645 271.403 503.543 271.163 503.341 270.992C503.149 270.811 502.893 270.677 502.573 270.592C502.253 270.496 501.895 270.416 501.501 270.352C501.106 270.288 500.711 270.213 500.317 270.128C499.933 270.043 499.581 269.92 499.261 269.76C498.941 269.589 498.679 269.36 498.477 269.072C498.285 268.784 498.189 268.4 498.189 267.92C498.189 267.461 498.317 267.051 498.573 266.688C498.829 266.325 499.202 266.043 499.693 265.84C500.194 265.627 500.802 265.52 501.517 265.52C502.061 265.52 502.605 265.595 503.149 265.744C503.693 265.883 504.141 266.069 504.493 266.304L503.997 267.216C503.623 266.96 503.223 266.779 502.797 266.672C502.37 266.555 501.943 266.496 501.517 266.496C500.759 266.496 500.199 266.629 499.837 266.896C499.485 267.152 499.309 267.483 499.309 267.888C499.309 268.208 499.405 268.459 499.597 268.64C499.799 268.821 500.061 268.965 500.381 269.072C500.711 269.168 501.069 269.248 501.453 269.312C501.847 269.376 502.237 269.456 502.621 269.552C503.015 269.637 503.373 269.76 503.693 269.92C504.023 270.069 504.285 270.288 504.477 270.576C504.679 270.853 504.781 271.221 504.781 271.68C504.781 272.171 504.642 272.597 504.365 272.96C504.098 273.312 503.703 273.589 503.181 273.792C502.669 273.984 502.045 274.08 501.309 274.08Z" fill="#3A3A3A"/>
<path d="M510.109 271.056V270.224L516.045 262.8H517.325L511.437 270.224L510.813 270.032H519.821V271.056H510.109ZM516.429 274V271.056L516.461 270.032V267.44H517.581V274H516.429ZM525.343 274.096C524.479 274.096 523.711 273.872 523.039 273.424C522.367 272.965 521.839 272.315 521.455 271.472C521.071 270.619 520.879 269.595 520.879 268.4C520.879 267.205 521.071 266.187 521.455 265.344C521.839 264.491 522.367 263.84 523.039 263.392C523.711 262.933 524.479 262.704 525.343 262.704C526.207 262.704 526.975 262.933 527.647 263.392C528.319 263.84 528.847 264.491 529.231 265.344C529.626 266.187 529.823 267.205 529.823 268.4C529.823 269.595 529.626 270.619 529.231 271.472C528.847 272.315 528.319 272.965 527.647 273.424C526.975 273.872 526.207 274.096 525.343 274.096ZM525.343 273.04C526.004 273.04 526.58 272.864 527.071 272.512C527.562 272.149 527.946 271.627 528.223 270.944C528.5 270.251 528.639 269.403 528.639 268.4C528.639 267.397 528.5 266.555 528.223 265.872C527.946 265.179 527.562 264.656 527.071 264.304C526.58 263.941 526.004 263.76 525.343 263.76C524.703 263.76 524.132 263.941 523.631 264.304C523.13 264.656 522.74 265.179 522.463 265.872C522.186 266.555 522.047 267.397 522.047 268.4C522.047 269.403 522.186 270.251 522.463 270.944C522.74 271.627 523.13 272.149 523.631 272.512C524.132 272.864 524.703 273.04 525.343 273.04ZM532.977 274L540.625 262.8H541.569L533.921 274H532.977ZM533.841 268.8C533.339 268.8 532.897 268.677 532.513 268.432C532.129 268.176 531.83 267.819 531.617 267.36C531.414 266.901 531.313 266.368 531.313 265.76C531.313 265.152 531.414 264.619 531.617 264.16C531.83 263.701 532.129 263.349 532.513 263.104C532.897 262.848 533.339 262.72 533.841 262.72C534.342 262.72 534.779 262.848 535.153 263.104C535.537 263.349 535.835 263.701 536.049 264.16C536.262 264.619 536.369 265.152 536.369 265.76C536.369 266.368 536.262 266.901 536.049 267.36C535.835 267.819 535.537 268.176 535.153 268.432C534.779 268.677 534.342 268.8 533.841 268.8ZM533.841 268.08C534.363 268.08 534.779 267.877 535.089 267.472C535.409 267.056 535.569 266.485 535.569 265.76C535.569 265.035 535.409 264.469 535.089 264.064C534.779 263.648 534.363 263.44 533.841 263.44C533.307 263.44 532.886 263.648 532.577 264.064C532.267 264.469 532.113 265.035 532.113 265.76C532.113 266.485 532.267 267.056 532.577 267.472C532.886 267.877 533.307 268.08 533.841 268.08ZM540.705 274.08C540.214 274.08 539.777 273.957 539.393 273.712C539.009 273.456 538.71 273.099 538.497 272.64C538.283 272.181 538.177 271.648 538.177 271.04C538.177 270.432 538.283 269.899 538.497 269.44C538.71 268.981 539.009 268.629 539.393 268.384C539.777 268.128 540.214 268 540.705 268C541.217 268 541.659 268.128 542.033 268.384C542.417 268.629 542.71 268.981 542.913 269.44C543.126 269.899 543.233 270.432 543.233 271.04C543.233 271.648 543.126 272.181 542.913 272.64C542.71 273.099 542.417 273.456 542.033 273.712C541.659 273.957 541.217 274.08 540.705 274.08ZM540.705 273.36C541.227 273.36 541.643 273.157 541.953 272.752C542.273 272.336 542.433 271.765 542.433 271.04C542.433 270.315 542.273 269.749 541.953 269.344C541.643 268.928 541.227 268.72 540.705 268.72C540.182 268.72 539.761 268.928 539.441 269.344C539.131 269.749 538.977 270.315 538.977 271.04C538.977 271.765 539.131 272.336 539.441 272.752C539.761 273.157 540.182 273.36 540.705 273.36Z" fill="#F8870D"/>
<path d="M309.824 110V98.8H314.656C315.904 98.8 316.869 99.0507 317.552 99.552C318.245 100.053 318.592 100.763 318.592 101.68C318.592 102.288 318.448 102.8 318.16 103.216C317.883 103.632 317.499 103.947 317.008 104.16C316.528 104.373 316 104.48 315.424 104.48L315.696 104.096C316.411 104.096 317.024 104.208 317.536 104.432C318.059 104.645 318.464 104.971 318.752 105.408C319.04 105.835 319.184 106.368 319.184 107.008C319.184 107.957 318.832 108.693 318.128 109.216C317.435 109.739 316.384 110 314.976 110H309.824ZM311.008 109.024H314.96C315.941 109.024 316.693 108.859 317.216 108.528C317.739 108.187 318 107.648 318 106.912C318 106.187 317.739 105.659 317.216 105.328C316.693 104.987 315.941 104.816 314.96 104.816H310.88V103.84H314.576C315.472 103.84 316.165 103.669 316.656 103.328C317.157 102.987 317.408 102.48 317.408 101.808C317.408 101.125 317.157 100.619 316.656 100.288C316.165 99.9467 315.472 99.776 314.576 99.776H311.008V109.024ZM326.911 110V108.144L326.863 107.84V104.736C326.863 104.021 326.66 103.472 326.255 103.088C325.86 102.704 325.268 102.512 324.479 102.512C323.935 102.512 323.417 102.603 322.927 102.784C322.436 102.965 322.02 103.205 321.679 103.504L321.167 102.656C321.593 102.293 322.105 102.016 322.703 101.824C323.3 101.621 323.929 101.52 324.591 101.52C325.679 101.52 326.516 101.792 327.103 102.336C327.7 102.869 327.999 103.685 327.999 104.784V110H326.911ZM324.015 110.08C323.385 110.08 322.836 109.979 322.367 109.776C321.908 109.563 321.556 109.275 321.311 108.912C321.065 108.539 320.943 108.112 320.943 107.632C320.943 107.195 321.044 106.8 321.247 106.448C321.46 106.085 321.801 105.797 322.271 105.584C322.751 105.36 323.391 105.248 324.191 105.248H327.087V106.096H324.223C323.412 106.096 322.847 106.24 322.527 106.528C322.217 106.816 322.062 107.173 322.062 107.6C322.062 108.08 322.249 108.464 322.623 108.752C322.996 109.04 323.519 109.184 324.191 109.184C324.831 109.184 325.38 109.04 325.839 108.752C326.308 108.453 326.649 108.027 326.863 107.472L327.119 108.256C326.905 108.811 326.532 109.253 325.999 109.584C325.476 109.915 324.815 110.08 324.015 110.08ZM334.572 110.08C333.74 110.08 332.993 109.899 332.332 109.536C331.681 109.163 331.169 108.656 330.796 108.016C330.423 107.365 330.236 106.624 330.236 105.792C330.236 104.949 330.423 104.208 330.796 103.568C331.169 102.928 331.681 102.427 332.332 102.064C332.993 101.701 333.74 101.52 334.572 101.52C335.287 101.52 335.932 101.659 336.508 101.936C337.084 102.213 337.537 102.629 337.868 103.184L337.02 103.76C336.732 103.333 336.375 103.019 335.948 102.816C335.521 102.613 335.057 102.512 334.556 102.512C333.959 102.512 333.42 102.651 332.94 102.928C332.46 103.195 332.081 103.573 331.804 104.064C331.527 104.555 331.388 105.131 331.388 105.792C331.388 106.453 331.527 107.029 331.804 107.52C332.081 108.011 332.46 108.395 332.94 108.672C333.42 108.939 333.959 109.072 334.556 109.072C335.057 109.072 335.521 108.971 335.948 108.768C336.375 108.565 336.732 108.256 337.02 107.84L337.868 108.416C337.537 108.96 337.084 109.376 336.508 109.664C335.932 109.941 335.287 110.08 334.572 110.08ZM340.871 107.824L340.903 106.368L346.135 101.6H347.527L343.831 105.136L343.191 105.68L340.871 107.824ZM339.975 110V98.128H341.111V110H339.975ZM346.487 110L342.983 105.632L343.719 104.752L347.879 110H346.487ZM352.9 110.08C352.185 110.08 351.561 109.947 351.028 109.68C350.494 109.413 350.078 109.013 349.78 108.48C349.492 107.947 349.348 107.28 349.348 106.48V101.6H350.484V106.352C350.484 107.248 350.702 107.925 351.14 108.384C351.588 108.832 352.212 109.056 353.012 109.056C353.598 109.056 354.105 108.939 354.532 108.704C354.969 108.459 355.3 108.107 355.524 107.648C355.758 107.189 355.876 106.64 355.876 106V101.6H357.012V110H355.924V107.696L356.1 108.112C355.833 108.731 355.417 109.216 354.852 109.568C354.297 109.909 353.646 110.08 352.9 110.08ZM364.514 110.08C363.788 110.08 363.132 109.915 362.546 109.584C361.959 109.243 361.49 108.757 361.138 108.128C360.796 107.488 360.626 106.709 360.626 105.792C360.626 104.875 360.796 104.101 361.138 103.472C361.479 102.832 361.943 102.347 362.53 102.016C363.116 101.685 363.778 101.52 364.514 101.52C365.314 101.52 366.028 101.701 366.658 102.064C367.298 102.416 367.799 102.917 368.162 103.568C368.524 104.208 368.706 104.949 368.706 105.792C368.706 106.645 368.524 107.392 368.162 108.032C367.799 108.672 367.298 109.173 366.658 109.536C366.028 109.899 365.314 110.08 364.514 110.08ZM360.178 113.104V101.6H361.266V104.128L361.154 105.808L361.314 107.504V113.104H360.178ZM364.434 109.072C365.031 109.072 365.564 108.939 366.034 108.672C366.503 108.395 366.876 108.011 367.154 107.52C367.431 107.019 367.57 106.443 367.57 105.792C367.57 105.141 367.431 104.571 367.154 104.08C366.876 103.589 366.503 103.205 366.034 102.928C365.564 102.651 365.031 102.512 364.434 102.512C363.836 102.512 363.298 102.651 362.818 102.928C362.348 103.205 361.975 103.589 361.698 104.08C361.431 104.571 361.298 105.141 361.298 105.792C361.298 106.443 361.431 107.019 361.698 107.52C361.975 108.011 362.348 108.395 362.818 108.672C363.298 108.939 363.836 109.072 364.434 109.072ZM376.505 104.224H382.425V105.248H376.505V104.224ZM376.633 110H375.449V98.8H383.129V99.824H376.633V110ZM388.525 110.08C387.81 110.08 387.186 109.947 386.653 109.68C386.119 109.413 385.703 109.013 385.405 108.48C385.117 107.947 384.973 107.28 384.973 106.48V101.6H386.109V106.352C386.109 107.248 386.327 107.925 386.765 108.384C387.213 108.832 387.837 109.056 388.637 109.056C389.223 109.056 389.73 108.939 390.157 108.704C390.594 108.459 390.925 108.107 391.149 107.648C391.383 107.189 391.501 106.64 391.501 106V101.6H392.637V110H391.549V107.696L391.725 108.112C391.458 108.731 391.042 109.216 390.477 109.568C389.922 109.909 389.271 110.08 388.525 110.08ZM400.091 101.52C400.773 101.52 401.371 101.653 401.883 101.92C402.405 102.176 402.811 102.571 403.099 103.104C403.397 103.637 403.547 104.309 403.547 105.12V110H402.411V105.232C402.411 104.347 402.187 103.68 401.739 103.232C401.301 102.773 400.683 102.544 399.883 102.544C399.285 102.544 398.763 102.667 398.315 102.912C397.877 103.147 397.536 103.493 397.291 103.952C397.056 104.4 396.939 104.944 396.939 105.584V110H395.803V101.6H396.891V103.904L396.715 103.472C396.981 102.864 397.408 102.389 397.995 102.048C398.581 101.696 399.28 101.52 400.091 101.52ZM409.959 110.08C409.159 110.08 408.439 109.899 407.799 109.536C407.17 109.173 406.674 108.672 406.311 108.032C405.949 107.381 405.767 106.635 405.767 105.792C405.767 104.939 405.949 104.192 406.311 103.552C406.674 102.912 407.17 102.416 407.799 102.064C408.439 101.701 409.159 101.52 409.959 101.52C410.695 101.52 411.351 101.685 411.927 102.016C412.514 102.347 412.978 102.832 413.319 103.472C413.671 104.101 413.847 104.875 413.847 105.792C413.847 106.699 413.677 107.472 413.335 108.112C412.994 108.752 412.53 109.243 411.943 109.584C411.367 109.915 410.706 110.08 409.959 110.08ZM410.039 109.072C410.637 109.072 411.17 108.939 411.639 108.672C412.119 108.395 412.493 108.011 412.759 107.52C413.037 107.019 413.175 106.443 413.175 105.792C413.175 105.131 413.037 104.555 412.759 104.064C412.493 103.573 412.119 103.195 411.639 102.928C411.17 102.651 410.637 102.512 410.039 102.512C409.453 102.512 408.925 102.651 408.455 102.928C407.986 103.195 407.613 103.573 407.335 104.064C407.058 104.555 406.919 105.131 406.919 105.792C406.919 106.443 407.058 107.019 407.335 107.52C407.613 108.011 407.986 108.395 408.455 108.672C408.925 108.939 409.453 109.072 410.039 109.072ZM413.207 110V107.472L413.319 105.776L413.159 104.08V98.128H414.295V110H413.207Z" fill="#3A3A3A"/>
<path d="M312.368 129.096C311.568 129.096 310.805 128.968 310.08 128.712C309.355 128.445 308.779 128.093 308.352 127.656L308.912 126.744C309.264 127.117 309.744 127.427 310.352 127.672C310.971 127.917 311.637 128.04 312.352 128.04C313.301 128.04 314.021 127.832 314.512 127.416C315.013 126.989 315.264 126.435 315.264 125.752C315.264 125.272 315.147 124.861 314.912 124.52C314.688 124.168 314.304 123.896 313.76 123.704C313.216 123.512 312.469 123.416 311.52 123.416H309.136L309.712 117.8H315.84V118.824H310.176L310.768 118.264L310.272 122.968L309.68 122.392H311.776C312.907 122.392 313.813 122.531 314.496 122.808C315.179 123.085 315.669 123.475 315.968 123.976C316.277 124.467 316.432 125.043 316.432 125.704C316.432 126.333 316.283 126.909 315.984 127.432C315.685 127.944 315.237 128.349 314.64 128.648C314.043 128.947 313.285 129.096 312.368 129.096ZM319.242 129L326.89 117.8H327.834L320.186 129H319.242ZM320.106 123.8C319.605 123.8 319.162 123.677 318.778 123.432C318.394 123.176 318.096 122.819 317.882 122.36C317.68 121.901 317.578 121.368 317.578 120.76C317.578 120.152 317.68 119.619 317.882 119.16C318.096 118.701 318.394 118.349 318.778 118.104C319.162 117.848 319.605 117.72 320.106 117.72C320.608 117.72 321.045 117.848 321.418 118.104C321.802 118.349 322.101 118.701 322.314 119.16C322.528 119.619 322.634 120.152 322.634 120.76C322.634 121.368 322.528 121.901 322.314 122.36C322.101 122.819 321.802 123.176 321.418 123.432C321.045 123.677 320.608 123.8 320.106 123.8ZM320.106 123.08C320.629 123.08 321.045 122.877 321.354 122.472C321.674 122.056 321.834 121.485 321.834 120.76C321.834 120.035 321.674 119.469 321.354 119.064C321.045 118.648 320.629 118.44 320.106 118.44C319.573 118.44 319.152 118.648 318.842 119.064C318.533 119.469 318.378 120.035 318.378 120.76C318.378 121.485 318.533 122.056 318.842 122.472C319.152 122.877 319.573 123.08 320.106 123.08ZM326.97 129.08C326.48 129.08 326.042 128.957 325.658 128.712C325.274 128.456 324.976 128.099 324.762 127.64C324.549 127.181 324.442 126.648 324.442 126.04C324.442 125.432 324.549 124.899 324.762 124.44C324.976 123.981 325.274 123.629 325.658 123.384C326.042 123.128 326.48 123 326.97 123C327.482 123 327.925 123.128 328.298 123.384C328.682 123.629 328.976 123.981 329.178 124.44C329.392 124.899 329.498 125.432 329.498 126.04C329.498 126.648 329.392 127.181 329.178 127.64C328.976 128.099 328.682 128.456 328.298 128.712C327.925 128.957 327.482 129.08 326.97 129.08ZM326.97 128.36C327.493 128.36 327.909 128.157 328.218 127.752C328.538 127.336 328.698 126.765 328.698 126.04C328.698 125.315 328.538 124.749 328.218 124.344C327.909 123.928 327.493 123.72 326.97 123.72C326.448 123.72 326.026 123.928 325.706 124.344C325.397 124.749 325.242 125.315 325.242 126.04C325.242 126.765 325.397 127.336 325.706 127.752C326.026 128.157 326.448 128.36 326.97 128.36Z" fill="#F8870D"/>
<path d="M115.324 148V136.8H116.3L121.42 145.536H120.908L125.98 136.8H126.956V148H125.82V138.576H126.092L121.42 146.576H120.86L116.156 138.576H116.46V148H115.324ZM135.629 148V146.144L135.581 145.84V142.736C135.581 142.021 135.379 141.472 134.973 141.088C134.579 140.704 133.987 140.512 133.197 140.512C132.653 140.512 132.136 140.603 131.645 140.784C131.155 140.965 130.739 141.205 130.397 141.504L129.885 140.656C130.312 140.293 130.824 140.016 131.421 139.824C132.019 139.621 132.648 139.52 133.309 139.52C134.397 139.52 135.235 139.792 135.821 140.336C136.419 140.869 136.717 141.685 136.717 142.784V148H135.629ZM132.733 148.08C132.104 148.08 131.555 147.979 131.085 147.776C130.627 147.563 130.275 147.275 130.029 146.912C129.784 146.539 129.661 146.112 129.661 145.632C129.661 145.195 129.763 144.8 129.965 144.448C130.179 144.085 130.52 143.797 130.989 143.584C131.469 143.36 132.109 143.248 132.909 143.248H135.805V144.096H132.941C132.131 144.096 131.565 144.24 131.245 144.528C130.936 144.816 130.781 145.173 130.781 145.6C130.781 146.08 130.968 146.464 131.341 146.752C131.715 147.04 132.237 147.184 132.909 147.184C133.549 147.184 134.099 147.04 134.557 146.752C135.027 146.453 135.368 146.027 135.581 145.472L135.837 146.256C135.624 146.811 135.251 147.253 134.717 147.584C134.195 147.915 133.533 148.08 132.733 148.08ZM139.803 148V139.6H140.891V141.888L140.779 141.488C141.013 140.848 141.408 140.363 141.963 140.032C142.517 139.691 143.205 139.52 144.027 139.52V140.624C143.984 140.624 143.941 140.624 143.899 140.624C143.856 140.613 143.813 140.608 143.771 140.608C142.885 140.608 142.192 140.88 141.691 141.424C141.189 141.957 140.939 142.72 140.939 143.712V148H139.803ZM146.996 145.824L147.028 144.368L152.26 139.6H153.652L149.956 143.136L149.316 143.68L146.996 145.824ZM146.1 148V136.128H147.236V148H146.1ZM152.612 148L149.108 143.632L149.844 142.752L154.004 148H152.612ZM158.933 148.08C158.059 148.08 157.291 147.899 156.629 147.536C155.968 147.163 155.451 146.656 155.077 146.016C154.704 145.365 154.517 144.624 154.517 143.792C154.517 142.96 154.693 142.224 155.045 141.584C155.408 140.944 155.899 140.443 156.517 140.08C157.147 139.707 157.851 139.52 158.629 139.52C159.419 139.52 160.117 139.701 160.725 140.064C161.344 140.416 161.829 140.917 162.181 141.568C162.533 142.208 162.709 142.949 162.709 143.792C162.709 143.845 162.704 143.904 162.693 143.968C162.693 144.021 162.693 144.08 162.693 144.144H155.381V143.296H162.085L161.637 143.632C161.637 143.024 161.504 142.485 161.237 142.016C160.981 141.536 160.629 141.163 160.181 140.896C159.733 140.629 159.216 140.496 158.629 140.496C158.053 140.496 157.536 140.629 157.077 140.896C156.619 141.163 156.261 141.536 156.005 142.016C155.749 142.496 155.621 143.045 155.621 143.664V143.84C155.621 144.48 155.76 145.045 156.037 145.536C156.325 146.016 156.72 146.395 157.221 146.672C157.733 146.939 158.315 147.072 158.965 147.072C159.477 147.072 159.952 146.981 160.389 146.8C160.837 146.619 161.221 146.341 161.541 145.968L162.181 146.704C161.808 147.152 161.339 147.493 160.773 147.728C160.219 147.963 159.605 148.08 158.933 148.08ZM167.678 148.08C166.888 148.08 166.28 147.867 165.854 147.44C165.427 147.013 165.214 146.411 165.214 145.632V137.744H166.35V145.568C166.35 146.059 166.472 146.437 166.718 146.704C166.974 146.971 167.336 147.104 167.806 147.104C168.307 147.104 168.723 146.96 169.054 146.672L169.454 147.488C169.23 147.691 168.958 147.84 168.638 147.936C168.328 148.032 168.008 148.08 167.678 148.08ZM163.71 140.544V139.6H168.91V140.544H163.71ZM171.522 148V139.6H172.658V148H171.522ZM172.098 137.744C171.863 137.744 171.666 137.664 171.506 137.504C171.346 137.344 171.266 137.152 171.266 136.928C171.266 136.704 171.346 136.517 171.506 136.368C171.666 136.208 171.863 136.128 172.098 136.128C172.332 136.128 172.53 136.203 172.69 136.352C172.85 136.501 172.93 136.688 172.93 136.912C172.93 137.147 172.85 137.344 172.69 137.504C172.54 137.664 172.343 137.744 172.098 137.744ZM180.106 139.52C180.789 139.52 181.386 139.653 181.898 139.92C182.421 140.176 182.826 140.571 183.114 141.104C183.413 141.637 183.562 142.309 183.562 143.12V148H182.426V143.232C182.426 142.347 182.202 141.68 181.754 141.232C181.317 140.773 180.698 140.544 179.898 140.544C179.301 140.544 178.778 140.667 178.33 140.912C177.893 141.147 177.552 141.493 177.306 141.952C177.072 142.4 176.954 142.944 176.954 143.584V148H175.818V139.6H176.906V141.904L176.73 141.472C176.997 140.864 177.424 140.389 178.01 140.048C178.597 139.696 179.296 139.52 180.106 139.52ZM190.215 151.184C189.447 151.184 188.711 151.072 188.007 150.848C187.303 150.624 186.732 150.304 186.295 149.888L186.871 149.024C187.266 149.376 187.751 149.653 188.327 149.856C188.914 150.069 189.532 150.176 190.183 150.176C191.25 150.176 192.034 149.925 192.535 149.424C193.036 148.933 193.287 148.165 193.287 147.12V145.024L193.447 143.584L193.335 142.144V139.6H194.423V146.976C194.423 148.427 194.066 149.488 193.351 150.16C192.647 150.843 191.602 151.184 190.215 151.184ZM190.007 147.68C189.207 147.68 188.487 147.509 187.847 147.168C187.207 146.816 186.7 146.331 186.327 145.712C185.964 145.093 185.783 144.384 185.783 143.584C185.783 142.784 185.964 142.08 186.327 141.472C186.7 140.853 187.207 140.373 187.847 140.032C188.487 139.691 189.207 139.52 190.007 139.52C190.754 139.52 191.426 139.675 192.023 139.984C192.62 140.293 193.095 140.752 193.447 141.36C193.799 141.968 193.975 142.709 193.975 143.584C193.975 144.459 193.799 145.2 193.447 145.808C193.095 146.416 192.62 146.88 192.023 147.2C191.426 147.52 190.754 147.68 190.007 147.68ZM190.119 146.672C190.738 146.672 191.287 146.544 191.767 146.288C192.247 146.021 192.626 145.659 192.903 145.2C193.18 144.731 193.319 144.192 193.319 143.584C193.319 142.976 193.18 142.443 192.903 141.984C192.626 141.525 192.247 141.168 191.767 140.912C191.287 140.645 190.738 140.512 190.119 140.512C189.511 140.512 188.962 140.645 188.471 140.912C187.991 141.168 187.612 141.525 187.335 141.984C187.068 142.443 186.935 142.976 186.935 143.584C186.935 144.192 187.068 144.731 187.335 145.2C187.612 145.659 187.991 146.021 188.471 146.288C188.962 146.544 189.511 146.672 190.119 146.672Z" fill="#3A3A3A"/>
<path d="M165.358 167V166.184L170.014 161.624C170.441 161.208 170.761 160.845 170.974 160.536C171.188 160.216 171.332 159.917 171.406 159.64C171.481 159.363 171.518 159.101 171.518 158.856C171.518 158.205 171.294 157.693 170.846 157.32C170.409 156.947 169.758 156.76 168.894 156.76C168.233 156.76 167.646 156.861 167.134 157.064C166.633 157.267 166.201 157.581 165.838 158.008L165.022 157.304C165.46 156.792 166.02 156.397 166.702 156.12C167.385 155.843 168.148 155.704 168.99 155.704C169.748 155.704 170.404 155.827 170.958 156.072C171.513 156.307 171.94 156.653 172.238 157.112C172.548 157.571 172.702 158.109 172.702 158.728C172.702 159.091 172.649 159.448 172.542 159.8C172.446 160.152 172.265 160.525 171.998 160.92C171.742 161.304 171.364 161.741 170.862 162.232L166.59 166.424L166.27 165.976H173.214V167H165.358ZM178.196 167.096C177.396 167.096 176.633 166.968 175.908 166.712C175.183 166.445 174.607 166.093 174.18 165.656L174.74 164.744C175.092 165.117 175.572 165.427 176.18 165.672C176.799 165.917 177.465 166.04 178.18 166.04C179.129 166.04 179.849 165.832 180.34 165.416C180.841 164.989 181.092 164.435 181.092 163.752C181.092 163.272 180.975 162.861 180.74 162.52C180.516 162.168 180.132 161.896 179.588 161.704C179.044 161.512 178.297 161.416 177.348 161.416H174.964L175.54 155.8H181.668V156.824H176.004L176.596 156.264L176.1 160.968L175.508 160.392H177.604C178.735 160.392 179.641 160.531 180.324 160.808C181.007 161.085 181.497 161.475 181.796 161.976C182.105 162.467 182.26 163.043 182.26 163.704C182.26 164.333 182.111 164.909 181.812 165.432C181.513 165.944 181.065 166.349 180.468 166.648C179.871 166.947 179.113 167.096 178.196 167.096ZM185.07 167L192.718 155.8H193.662L186.014 167H185.07ZM185.934 161.8C185.433 161.8 184.99 161.677 184.606 161.432C184.222 161.176 183.924 160.819 183.71 160.36C183.508 159.901 183.406 159.368 183.406 158.76C183.406 158.152 183.508 157.619 183.71 157.16C183.924 156.701 184.222 156.349 184.606 156.104C184.99 155.848 185.433 155.72 185.934 155.72C186.436 155.72 186.873 155.848 187.246 156.104C187.63 156.349 187.929 156.701 188.142 157.16C188.356 157.619 188.462 158.152 188.462 158.76C188.462 159.368 188.356 159.901 188.142 160.36C187.929 160.819 187.63 161.176 187.246 161.432C186.873 161.677 186.436 161.8 185.934 161.8ZM185.934 161.08C186.457 161.08 186.873 160.877 187.182 160.472C187.502 160.056 187.662 159.485 187.662 158.76C187.662 158.035 187.502 157.469 187.182 157.064C186.873 156.648 186.457 156.44 185.934 156.44C185.401 156.44 184.98 156.648 184.67 157.064C184.361 157.469 184.206 158.035 184.206 158.76C184.206 159.485 184.361 160.056 184.67 160.472C184.98 160.877 185.401 161.08 185.934 161.08ZM192.798 167.08C192.308 167.08 191.87 166.957 191.486 166.712C191.102 166.456 190.804 166.099 190.59 165.64C190.377 165.181 190.27 164.648 190.27 164.04C190.27 163.432 190.377 162.899 190.59 162.44C190.804 161.981 191.102 161.629 191.486 161.384C191.87 161.128 192.308 161 192.798 161C193.31 161 193.753 161.128 194.126 161.384C194.51 161.629 194.804 161.981 195.006 162.44C195.22 162.899 195.326 163.432 195.326 164.04C195.326 164.648 195.22 165.181 195.006 165.64C194.804 166.099 194.51 166.456 194.126 166.712C193.753 166.957 193.31 167.08 192.798 167.08ZM192.798 166.36C193.321 166.36 193.737 166.157 194.046 165.752C194.366 165.336 194.526 164.765 194.526 164.04C194.526 163.315 194.366 162.749 194.046 162.344C193.737 161.928 193.321 161.72 192.798 161.72C192.276 161.72 191.854 161.928 191.534 162.344C191.225 162.749 191.07 163.315 191.07 164.04C191.07 164.765 191.225 165.336 191.534 165.752C191.854 166.157 192.276 166.36 192.798 166.36Z" fill="#F8870D"/>
<path d="M40.824 298V286.8H42.008V296.976H48.28V298H40.824ZM53.4489 298.08C52.5742 298.08 51.8062 297.899 51.1449 297.536C50.4835 297.163 49.9662 296.656 49.5929 296.016C49.2195 295.365 49.0329 294.624 49.0329 293.792C49.0329 292.96 49.2089 292.224 49.5609 291.584C49.9235 290.944 50.4142 290.443 51.0329 290.08C51.6622 289.707 52.3662 289.52 53.1449 289.52C53.9342 289.52 54.6329 289.701 55.2409 290.064C55.8595 290.416 56.3449 290.917 56.6969 291.568C57.0489 292.208 57.2249 292.949 57.2249 293.792C57.2249 293.845 57.2195 293.904 57.2089 293.968C57.2089 294.021 57.2089 294.08 57.2089 294.144H49.8969V293.296H56.6009L56.1529 293.632C56.1529 293.024 56.0195 292.485 55.7529 292.016C55.4969 291.536 55.1449 291.163 54.6969 290.896C54.2489 290.629 53.7315 290.496 53.1449 290.496C52.5689 290.496 52.0515 290.629 51.5929 290.896C51.1342 291.163 50.7769 291.536 50.5209 292.016C50.2649 292.496 50.1369 293.045 50.1369 293.664V293.84C50.1369 294.48 50.2755 295.045 50.5529 295.536C50.8409 296.016 51.2355 296.395 51.7369 296.672C52.2489 296.939 52.8302 297.072 53.4809 297.072C53.9929 297.072 54.4675 296.981 54.9049 296.8C55.3529 296.619 55.7369 296.341 56.0569 295.968L56.6969 296.704C56.3235 297.152 55.8542 297.493 55.2889 297.728C54.7342 297.963 54.1209 298.08 53.4489 298.08ZM63.1211 301.184C62.3531 301.184 61.6171 301.072 60.9131 300.848C60.2091 300.624 59.6385 300.304 59.2011 299.888L59.7771 299.024C60.1718 299.376 60.6571 299.653 61.2331 299.856C61.8198 300.069 62.4385 300.176 63.0891 300.176C64.1558 300.176 64.9398 299.925 65.4411 299.424C65.9425 298.933 66.1931 298.165 66.1931 297.12V295.024L66.3531 293.584L66.2411 292.144V289.6H67.3291V296.976C67.3291 298.427 66.9718 299.488 66.2571 300.16C65.5531 300.843 64.5078 301.184 63.1211 301.184ZM62.9131 297.68C62.1131 297.68 61.3931 297.509 60.7531 297.168C60.1131 296.816 59.6065 296.331 59.2331 295.712C58.8705 295.093 58.6891 294.384 58.6891 293.584C58.6891 292.784 58.8705 292.08 59.2331 291.472C59.6065 290.853 60.1131 290.373 60.7531 290.032C61.3931 289.691 62.1131 289.52 62.9131 289.52C63.6598 289.52 64.3318 289.675 64.9291 289.984C65.5265 290.293 66.0011 290.752 66.3531 291.36C66.7051 291.968 66.8811 292.709 66.8811 293.584C66.8811 294.459 66.7051 295.2 66.3531 295.808C66.0011 296.416 65.5265 296.88 64.9291 297.2C64.3318 297.52 63.6598 297.68 62.9131 297.68ZM63.0251 296.672C63.6438 296.672 64.1931 296.544 64.6731 296.288C65.1531 296.021 65.5318 295.659 65.8091 295.2C66.0865 294.731 66.2251 294.192 66.2251 293.584C66.2251 292.976 66.0865 292.443 65.8091 291.984C65.5318 291.525 65.1531 291.168 64.6731 290.912C64.1931 290.645 63.6438 290.512 63.0251 290.512C62.4171 290.512 61.8678 290.645 61.3771 290.912C60.8971 291.168 60.5185 291.525 60.2411 291.984C59.9745 292.443 59.8411 292.976 59.8411 293.584C59.8411 294.192 59.9745 294.731 60.2411 295.2C60.5185 295.659 60.8971 296.021 61.3771 296.288C61.8678 296.544 62.4171 296.672 63.0251 296.672ZM75.7543 298V296.144L75.7063 295.84V292.736C75.7063 292.021 75.5036 291.472 75.0983 291.088C74.7036 290.704 74.1116 290.512 73.3223 290.512C72.7783 290.512 72.2609 290.603 71.7703 290.784C71.2796 290.965 70.8636 291.205 70.5223 291.504L70.0103 290.656C70.4369 290.293 70.9489 290.016 71.5463 289.824C72.1436 289.621 72.7729 289.52 73.4343 289.52C74.5223 289.52 75.3596 289.792 75.9463 290.336C76.5436 290.869 76.8423 291.685 76.8423 292.784V298H75.7543ZM72.8583 298.08C72.2289 298.08 71.6796 297.979 71.2103 297.776C70.7516 297.563 70.3996 297.275 70.1543 296.912C69.9089 296.539 69.7863 296.112 69.7863 295.632C69.7863 295.195 69.8876 294.8 70.0903 294.448C70.3036 294.085 70.6449 293.797 71.1143 293.584C71.5943 293.36 72.2343 293.248 73.0343 293.248H75.9303V294.096H73.0663C72.2556 294.096 71.6903 294.24 71.3703 294.528C71.0609 294.816 70.9062 295.173 70.9062 295.6C70.9062 296.08 71.0929 296.464 71.4663 296.752C71.8396 297.04 72.3623 297.184 73.0343 297.184C73.6743 297.184 74.2236 297.04 74.6823 296.752C75.1516 296.453 75.4929 296.027 75.7063 295.472L75.9623 296.256C75.7489 296.811 75.3756 297.253 74.8423 297.584C74.3196 297.915 73.6583 298.08 72.8583 298.08ZM79.9278 298V286.128H81.0638V298H79.9278ZM91.3721 298.096C90.6468 298.096 90.0015 297.979 89.4361 297.744C88.8708 297.499 88.4228 297.163 88.0921 296.736C87.7721 296.309 87.6121 295.813 87.6121 295.248C87.6121 294.768 87.7188 294.331 87.9321 293.936C88.1455 293.531 88.4868 293.136 88.9561 292.752C89.4361 292.357 90.0708 291.947 90.8601 291.52C91.5321 291.147 92.0548 290.827 92.4281 290.56C92.8121 290.283 93.0841 290.021 93.2441 289.776C93.4041 289.52 93.4841 289.248 93.4841 288.96C93.4841 288.544 93.3401 288.208 93.0521 287.952C92.7748 287.696 92.3748 287.568 91.8521 287.568C91.2868 287.568 90.8495 287.712 90.5401 288C90.2308 288.277 90.0761 288.64 90.0761 289.088C90.0761 289.312 90.1081 289.525 90.1721 289.728C90.2468 289.931 90.3801 290.155 90.5721 290.4C90.7748 290.645 91.0521 290.955 91.4041 291.328L97.3241 297.424L96.6681 298.176L90.4921 291.824C90.1188 291.429 89.8201 291.088 89.5961 290.8C89.3828 290.501 89.2335 290.219 89.1481 289.952C89.0628 289.685 89.0201 289.403 89.0201 289.104C89.0201 288.624 89.1321 288.208 89.3561 287.856C89.5908 287.493 89.9215 287.216 90.3481 287.024C90.7748 286.821 91.2761 286.72 91.8521 286.72C92.3748 286.72 92.8281 286.811 93.2121 286.992C93.6068 287.163 93.9108 287.413 94.1241 287.744C94.3481 288.075 94.4601 288.475 94.4601 288.944C94.4601 289.349 94.3588 289.728 94.1561 290.08C93.9641 290.432 93.6441 290.779 93.1961 291.12C92.7481 291.451 92.1401 291.824 91.3721 292.24C90.7001 292.613 90.1668 292.955 89.7721 293.264C89.3881 293.573 89.1161 293.877 88.9561 294.176C88.7961 294.464 88.7161 294.784 88.7161 295.136C88.7161 295.541 88.8281 295.899 89.0521 296.208C89.2868 296.507 89.6068 296.741 90.0121 296.912C90.4281 297.072 90.9028 297.152 91.4361 297.152C92.1828 297.152 92.8495 296.997 93.4361 296.688C94.0228 296.379 94.5135 295.909 94.9081 295.28C95.3135 294.651 95.6068 293.861 95.7881 292.912L96.7001 293.2C96.4975 294.267 96.1508 295.163 95.6601 295.888C95.1695 296.613 94.5615 297.163 93.8361 297.536C93.1108 297.909 92.2895 298.096 91.3721 298.096ZM43.912 317.096C43.08 317.096 42.28 316.963 41.512 316.696C40.7547 316.419 40.168 316.067 39.752 315.64L40.216 314.728C40.6107 315.112 41.1387 315.437 41.8 315.704C42.472 315.96 43.176 316.088 43.912 316.088C44.616 316.088 45.1867 316.003 45.624 315.832C46.072 315.651 46.3973 315.411 46.6 315.112C46.8133 314.813 46.92 314.483 46.92 314.12C46.92 313.683 46.792 313.331 46.536 313.064C46.2907 312.797 45.9653 312.589 45.56 312.44C45.1547 312.28 44.7067 312.141 44.216 312.024C43.7253 311.907 43.2347 311.784 42.744 311.656C42.2533 311.517 41.8 311.336 41.384 311.112C40.9787 310.888 40.648 310.595 40.392 310.232C40.1467 309.859 40.024 309.373 40.024 308.776C40.024 308.221 40.168 307.715 40.456 307.256C40.7547 306.787 41.208 306.413 41.816 306.136C42.424 305.848 43.2027 305.704 44.152 305.704C44.7813 305.704 45.4053 305.795 46.024 305.976C46.6427 306.147 47.176 306.387 47.624 306.696L47.224 307.64C46.744 307.32 46.232 307.085 45.688 306.936C45.1547 306.787 44.6373 306.712 44.136 306.712C43.464 306.712 42.9093 306.803 42.472 306.984C42.0347 307.165 41.7093 307.411 41.496 307.72C41.2933 308.019 41.192 308.36 41.192 308.744C41.192 309.181 41.3147 309.533 41.56 309.8C41.816 310.067 42.1467 310.275 42.552 310.424C42.968 310.573 43.4213 310.707 43.912 310.824C44.4027 310.941 44.888 311.069 45.368 311.208C45.8587 311.347 46.3067 311.528 46.712 311.752C47.128 311.965 47.4587 312.253 47.704 312.616C47.96 312.979 48.088 313.453 48.088 314.04C48.088 314.584 47.9387 315.091 47.64 315.56C47.3413 316.019 46.8827 316.392 46.264 316.68C45.656 316.957 44.872 317.096 43.912 317.096ZM54.7158 308.52C55.3984 308.52 55.9958 308.653 56.5078 308.92C57.0304 309.176 57.4358 309.571 57.7238 310.104C58.0224 310.637 58.1718 311.309 58.1718 312.12V317H57.0358V312.232C57.0358 311.347 56.8118 310.68 56.3638 310.232C55.9264 309.773 55.3078 309.544 54.5078 309.544C53.9104 309.544 53.3878 309.667 52.9398 309.912C52.5024 310.147 52.1611 310.493 51.9158 310.952C51.6811 311.4 51.5638 311.944 51.5638 312.584V317H50.4278V305.128H51.5638V310.904L51.3398 310.472C51.6064 309.864 52.0331 309.389 52.6198 309.048C53.2064 308.696 53.9051 308.52 54.7158 308.52ZM66.5043 317V315.144L66.4563 314.84V311.736C66.4563 311.021 66.2536 310.472 65.8483 310.088C65.4536 309.704 64.8616 309.512 64.0723 309.512C63.5283 309.512 63.0109 309.603 62.5203 309.784C62.0296 309.965 61.6136 310.205 61.2723 310.504L60.7603 309.656C61.1869 309.293 61.6989 309.016 62.2963 308.824C62.8936 308.621 63.5229 308.52 64.1843 308.52C65.2723 308.52 66.1096 308.792 66.6963 309.336C67.2936 309.869 67.5923 310.685 67.5923 311.784V317H66.5043ZM63.6083 317.08C62.9789 317.08 62.4296 316.979 61.9603 316.776C61.5016 316.563 61.1496 316.275 60.9043 315.912C60.6589 315.539 60.5363 315.112 60.5363 314.632C60.5363 314.195 60.6376 313.8 60.8403 313.448C61.0536 313.085 61.3949 312.797 61.8643 312.584C62.3443 312.36 62.9843 312.248 63.7843 312.248H66.6803V313.096H63.8163C63.0056 313.096 62.4403 313.24 62.1203 313.528C61.8109 313.816 61.6562 314.173 61.6562 314.6C61.6562 315.08 61.8429 315.464 62.2163 315.752C62.5896 316.04 63.1123 316.184 63.7843 316.184C64.4243 316.184 64.9736 316.04 65.4323 315.752C65.9016 315.453 66.2429 315.027 66.4563 314.472L66.7123 315.256C66.4989 315.811 66.1256 316.253 65.5923 316.584C65.0696 316.915 64.4083 317.08 63.6083 317.08ZM70.6778 317V308.6H71.7658V310.888L71.6538 310.488C71.8884 309.848 72.2831 309.363 72.8378 309.032C73.3924 308.691 74.0804 308.52 74.9018 308.52V309.624C74.8591 309.624 74.8164 309.624 74.7738 309.624C74.7311 309.613 74.6884 309.608 74.6458 309.608C73.7604 309.608 73.0671 309.88 72.5658 310.424C72.0644 310.957 71.8138 311.72 71.8138 312.712V317H70.6778ZM76.9746 317V308.6H78.1106V317H76.9746ZM77.5506 306.744C77.316 306.744 77.1186 306.664 76.9586 306.504C76.7986 306.344 76.7186 306.152 76.7186 305.928C76.7186 305.704 76.7986 305.517 76.9586 305.368C77.1186 305.208 77.316 305.128 77.5506 305.128C77.7853 305.128 77.9826 305.203 78.1426 305.352C78.3026 305.501 78.3826 305.688 78.3826 305.912C78.3826 306.147 78.3026 306.344 78.1426 306.504C77.9933 306.664 77.796 306.744 77.5506 306.744ZM81.3355 320.184C80.9408 320.184 80.5622 320.12 80.1995 319.992C79.8475 319.864 79.5435 319.672 79.2875 319.416L79.8155 318.568C80.0288 318.771 80.2582 318.925 80.5035 319.032C80.7595 319.149 81.0422 319.208 81.3515 319.208C81.7248 319.208 82.0448 319.101 82.3115 318.888C82.5888 318.685 82.8502 318.323 83.0955 317.8L83.6395 316.568L83.7675 316.392L87.2235 308.6H88.3435L84.1355 318.008C83.9008 318.552 83.6395 318.984 83.3515 319.304C83.0742 319.624 82.7702 319.848 82.4395 319.976C82.1088 320.115 81.7408 320.184 81.3355 320.184ZM83.5755 317.24L79.7035 308.6H80.8875L84.3115 316.312L83.5755 317.24ZM94.9574 317V315.144L94.9094 314.84V311.736C94.9094 311.021 94.7067 310.472 94.3014 310.088C93.9067 309.704 93.3147 309.512 92.5254 309.512C91.9814 309.512 91.464 309.603 90.9734 309.784C90.4827 309.965 90.0667 310.205 89.7254 310.504L89.2134 309.656C89.64 309.293 90.152 309.016 90.7494 308.824C91.3467 308.621 91.976 308.52 92.6374 308.52C93.7254 308.52 94.5627 308.792 95.1494 309.336C95.7467 309.869 96.0454 310.685 96.0454 311.784V317H94.9574ZM92.0614 317.08C91.432 317.08 90.8827 316.979 90.4134 316.776C89.9547 316.563 89.6027 316.275 89.3574 315.912C89.112 315.539 88.9894 315.112 88.9894 314.632C88.9894 314.195 89.0907 313.8 89.2934 313.448C89.5067 313.085 89.848 312.797 90.3174 312.584C90.7974 312.36 91.4374 312.248 92.2374 312.248H95.1334V313.096H92.2694C91.4587 313.096 90.8934 313.24 90.5734 313.528C90.264 313.816 90.1094 314.173 90.1094 314.6C90.1094 315.08 90.296 315.464 90.6694 315.752C91.0427 316.04 91.5654 316.184 92.2374 316.184C92.8774 316.184 93.4267 316.04 93.8854 315.752C94.3547 315.453 94.696 315.027 94.9094 314.472L95.1654 315.256C94.952 315.811 94.5787 316.253 94.0454 316.584C93.5227 316.915 92.8614 317.08 92.0614 317.08Z" fill="#3A3A3A"/>
<path d="M100.331 317V306.28L100.843 306.824H97.6909V305.8H101.483V317H100.331ZM108.624 317.096C107.76 317.096 106.992 316.872 106.32 316.424C105.648 315.965 105.12 315.315 104.736 314.472C104.352 313.619 104.16 312.595 104.16 311.4C104.16 310.205 104.352 309.187 104.736 308.344C105.12 307.491 105.648 306.84 106.32 306.392C106.992 305.933 107.76 305.704 108.624 305.704C109.488 305.704 110.256 305.933 110.928 306.392C111.6 306.84 112.128 307.491 112.512 308.344C112.907 309.187 113.104 310.205 113.104 311.4C113.104 312.595 112.907 313.619 112.512 314.472C112.128 315.315 111.6 315.965 110.928 316.424C110.256 316.872 109.488 317.096 108.624 317.096ZM108.624 316.04C109.285 316.04 109.861 315.864 110.352 315.512C110.843 315.149 111.227 314.627 111.504 313.944C111.781 313.251 111.92 312.403 111.92 311.4C111.92 310.397 111.781 309.555 111.504 308.872C111.227 308.179 110.843 307.656 110.352 307.304C109.861 306.941 109.285 306.76 108.624 306.76C107.984 306.76 107.413 306.941 106.912 307.304C106.411 307.656 106.021 308.179 105.744 308.872C105.467 309.555 105.328 310.397 105.328 311.4C105.328 312.403 105.467 313.251 105.744 313.944C106.021 314.627 106.411 315.149 106.912 315.512C107.413 315.864 107.984 316.04 108.624 316.04ZM116.258 317L123.906 305.8H124.85L117.202 317H116.258ZM117.122 311.8C116.621 311.8 116.178 311.677 115.794 311.432C115.41 311.176 115.111 310.819 114.898 310.36C114.695 309.901 114.594 309.368 114.594 308.76C114.594 308.152 114.695 307.619 114.898 307.16C115.111 306.701 115.41 306.349 115.794 306.104C116.178 305.848 116.621 305.72 117.122 305.72C117.623 305.72 118.061 305.848 118.434 306.104C118.818 306.349 119.117 306.701 119.33 307.16C119.543 307.619 119.65 308.152 119.65 308.76C119.65 309.368 119.543 309.901 119.33 310.36C119.117 310.819 118.818 311.176 118.434 311.432C118.061 311.677 117.623 311.8 117.122 311.8ZM117.122 311.08C117.645 311.08 118.061 310.877 118.37 310.472C118.69 310.056 118.85 309.485 118.85 308.76C118.85 308.035 118.69 307.469 118.37 307.064C118.061 306.648 117.645 306.44 117.122 306.44C116.589 306.44 116.167 306.648 115.858 307.064C115.549 307.469 115.394 308.035 115.394 308.76C115.394 309.485 115.549 310.056 115.858 310.472C116.167 310.877 116.589 311.08 117.122 311.08ZM123.986 317.08C123.495 317.08 123.058 316.957 122.674 316.712C122.29 316.456 121.991 316.099 121.778 315.64C121.565 315.181 121.458 314.648 121.458 314.04C121.458 313.432 121.565 312.899 121.778 312.44C121.991 311.981 122.29 311.629 122.674 311.384C123.058 311.128 123.495 311 123.986 311C124.498 311 124.941 311.128 125.314 311.384C125.698 311.629 125.991 311.981 126.194 312.44C126.407 312.899 126.514 313.432 126.514 314.04C126.514 314.648 126.407 315.181 126.194 315.64C125.991 316.099 125.698 316.456 125.314 316.712C124.941 316.957 124.498 317.08 123.986 317.08ZM123.986 316.36C124.509 316.36 124.925 316.157 125.234 315.752C125.554 315.336 125.714 314.765 125.714 314.04C125.714 313.315 125.554 312.749 125.234 312.344C124.925 311.928 124.509 311.72 123.986 311.72C123.463 311.72 123.042 311.928 122.722 312.344C122.413 312.749 122.258 313.315 122.258 314.04C122.258 314.765 122.413 315.336 122.722 315.752C123.042 316.157 123.463 316.36 123.986 316.36Z" fill="#F8870D"/>
<path d="M105.215 502V490.8H109.407C110.356 490.8 111.172 490.955 111.855 491.264C112.537 491.563 113.06 492 113.423 492.576C113.796 493.141 113.983 493.829 113.983 494.64C113.983 495.429 113.796 496.112 113.423 496.688C113.06 497.253 112.537 497.691 111.855 498C111.172 498.309 110.356 498.464 109.407 498.464H105.871L106.399 497.904V502H105.215ZM106.399 498L105.871 497.424H109.375C110.495 497.424 111.343 497.184 111.919 496.704C112.505 496.213 112.799 495.525 112.799 494.64C112.799 493.744 112.505 493.051 111.919 492.56C111.343 492.069 110.495 491.824 109.375 491.824H105.871L106.399 491.264V498ZM116.459 502V490.128H117.595V502H116.459ZM126.02 502V500.144L125.972 499.84V496.736C125.972 496.021 125.769 495.472 125.364 495.088C124.969 494.704 124.377 494.512 123.588 494.512C123.044 494.512 122.527 494.603 122.036 494.784C121.545 494.965 121.129 495.205 120.788 495.504L120.276 494.656C120.703 494.293 121.215 494.016 121.812 493.824C122.409 493.621 123.039 493.52 123.7 493.52C124.788 493.52 125.625 493.792 126.212 494.336C126.809 494.869 127.108 495.685 127.108 496.784V502H126.02ZM123.124 502.08C122.495 502.08 121.945 501.979 121.476 501.776C121.017 501.563 120.665 501.275 120.42 500.912C120.175 500.539 120.052 500.112 120.052 499.632C120.052 499.195 120.153 498.8 120.356 498.448C120.569 498.085 120.911 497.797 121.38 497.584C121.86 497.36 122.5 497.248 123.3 497.248H126.196V498.096H123.332C122.521 498.096 121.956 498.24 121.636 498.528C121.327 498.816 121.172 499.173 121.172 499.6C121.172 500.08 121.359 500.464 121.732 500.752C122.105 501.04 122.628 501.184 123.3 501.184C123.94 501.184 124.489 501.04 124.948 500.752C125.417 500.453 125.759 500.027 125.972 499.472L126.228 500.256C126.015 500.811 125.641 501.253 125.108 501.584C124.585 501.915 123.924 502.08 123.124 502.08ZM132.849 502.08C132.06 502.08 131.452 501.867 131.025 501.44C130.599 501.013 130.385 500.411 130.385 499.632V491.744H131.521V499.568C131.521 500.059 131.644 500.437 131.889 500.704C132.145 500.971 132.508 501.104 132.977 501.104C133.479 501.104 133.895 500.96 134.225 500.672L134.625 501.488C134.401 501.691 134.129 501.84 133.809 501.936C133.5 502.032 133.18 502.08 132.849 502.08ZM128.881 494.544V493.6H134.081V494.544H128.881ZM136.885 502V492.544C136.885 491.797 137.104 491.195 137.541 490.736C137.979 490.277 138.608 490.048 139.429 490.048C139.749 490.048 140.059 490.091 140.357 490.176C140.656 490.261 140.907 490.395 141.109 490.576L140.725 491.424C140.565 491.285 140.379 491.184 140.165 491.12C139.952 491.045 139.723 491.008 139.477 491.008C138.997 491.008 138.629 491.141 138.373 491.408C138.117 491.675 137.989 492.069 137.989 492.592V493.872L138.021 494.4V502H136.885ZM135.381 494.544V493.6H140.581V494.544H135.381ZM145.399 502.08C144.588 502.08 143.857 501.899 143.207 501.536C142.567 501.163 142.06 500.656 141.687 500.016C141.313 499.365 141.127 498.624 141.127 497.792C141.127 496.949 141.313 496.208 141.687 495.568C142.06 494.928 142.567 494.427 143.207 494.064C143.847 493.701 144.577 493.52 145.399 493.52C146.231 493.52 146.967 493.701 147.607 494.064C148.257 494.427 148.764 494.928 149.127 495.568C149.5 496.208 149.687 496.949 149.687 497.792C149.687 498.624 149.5 499.365 149.127 500.016C148.764 500.656 148.257 501.163 147.607 501.536C146.956 501.899 146.22 502.08 145.399 502.08ZM145.399 501.072C146.007 501.072 146.545 500.939 147.015 500.672C147.484 500.395 147.852 500.011 148.119 499.52C148.396 499.019 148.535 498.443 148.535 497.792C148.535 497.131 148.396 496.555 148.119 496.064C147.852 495.573 147.484 495.195 147.015 494.928C146.545 494.651 146.012 494.512 145.415 494.512C144.817 494.512 144.284 494.651 143.815 494.928C143.345 495.195 142.972 495.573 142.695 496.064C142.417 496.555 142.279 497.131 142.279 497.792C142.279 498.443 142.417 499.019 142.695 499.52C142.972 500.011 143.345 500.395 143.815 500.672C144.284 500.939 144.812 501.072 145.399 501.072ZM152.006 502V493.6H153.094V495.888L152.982 495.488C153.217 494.848 153.611 494.363 154.166 494.032C154.721 493.691 155.409 493.52 156.23 493.52V494.624C156.187 494.624 156.145 494.624 156.102 494.624C156.059 494.613 156.017 494.608 155.974 494.608C155.089 494.608 154.395 494.88 153.894 495.424C153.393 495.957 153.142 496.72 153.142 497.712V502H152.006ZM168.799 493.52C169.481 493.52 170.073 493.653 170.575 493.92C171.087 494.176 171.481 494.571 171.759 495.104C172.047 495.637 172.191 496.309 172.191 497.12V502H171.055V497.232C171.055 496.347 170.841 495.68 170.415 495.232C169.999 494.773 169.407 494.544 168.639 494.544C168.063 494.544 167.561 494.667 167.135 494.912C166.719 495.147 166.393 495.493 166.159 495.952C165.935 496.4 165.823 496.944 165.823 497.584V502H164.687V497.232C164.687 496.347 164.473 495.68 164.047 495.232C163.62 494.773 163.023 494.544 162.255 494.544C161.689 494.544 161.193 494.667 160.767 494.912C160.34 495.147 160.009 495.493 159.775 495.952C159.551 496.4 159.439 496.944 159.439 497.584V502H158.303V493.6H159.391V495.872L159.215 495.472C159.471 494.864 159.881 494.389 160.447 494.048C161.023 493.696 161.7 493.52 162.479 493.52C163.3 493.52 163.999 493.728 164.575 494.144C165.151 494.549 165.524 495.163 165.695 495.984L165.247 495.808C165.492 495.125 165.924 494.576 166.543 494.16C167.172 493.733 167.924 493.52 168.799 493.52ZM179.699 502V490.8H180.883V500.976H187.155V502H179.699ZM194.145 502V500.144L194.097 499.84V496.736C194.097 496.021 193.894 495.472 193.489 495.088C193.094 494.704 192.502 494.512 191.713 494.512C191.169 494.512 190.652 494.603 190.161 494.784C189.67 494.965 189.254 495.205 188.913 495.504L188.401 494.656C188.828 494.293 189.34 494.016 189.937 493.824C190.534 493.621 191.164 493.52 191.825 493.52C192.913 493.52 193.75 493.792 194.337 494.336C194.934 494.869 195.233 495.685 195.233 496.784V502H194.145ZM191.249 502.08C190.62 502.08 190.07 501.979 189.601 501.776C189.142 501.563 188.79 501.275 188.545 500.912C188.3 500.539 188.177 500.112 188.177 499.632C188.177 499.195 188.278 498.8 188.481 498.448C188.694 498.085 189.036 497.797 189.505 497.584C189.985 497.36 190.625 497.248 191.425 497.248H194.321V498.096H191.457C190.646 498.096 190.081 498.24 189.761 498.528C189.452 498.816 189.297 499.173 189.297 499.6C189.297 500.08 189.484 500.464 189.857 500.752C190.23 501.04 190.753 501.184 191.425 501.184C192.065 501.184 192.614 501.04 193.073 500.752C193.542 500.453 193.884 500.027 194.097 499.472L194.353 500.256C194.14 500.811 193.766 501.253 193.233 501.584C192.71 501.915 192.049 502.08 191.249 502.08ZM201.79 502.08C201.076 502.08 200.452 501.947 199.918 501.68C199.385 501.413 198.969 501.013 198.67 500.48C198.382 499.947 198.238 499.28 198.238 498.48V493.6H199.374V498.352C199.374 499.248 199.593 499.925 200.03 500.384C200.478 500.832 201.102 501.056 201.902 501.056C202.489 501.056 202.996 500.939 203.422 500.704C203.86 500.459 204.19 500.107 204.414 499.648C204.649 499.189 204.766 498.64 204.766 498V493.6H205.902V502H204.814V499.696L204.99 500.112C204.724 500.731 204.308 501.216 203.742 501.568C203.188 501.909 202.537 502.08 201.79 502.08ZM213.356 493.52C214.039 493.52 214.636 493.653 215.148 493.92C215.671 494.176 216.076 494.571 216.364 495.104C216.663 495.637 216.812 496.309 216.812 497.12V502H215.676V497.232C215.676 496.347 215.452 495.68 215.004 495.232C214.567 494.773 213.948 494.544 213.148 494.544C212.551 494.544 212.028 494.667 211.58 494.912C211.143 495.147 210.802 495.493 210.556 495.952C210.322 496.4 210.204 496.944 210.204 497.584V502H209.068V493.6H210.156V495.904L209.98 495.472C210.247 494.864 210.674 494.389 211.26 494.048C211.847 493.696 212.546 493.52 213.356 493.52ZM223.369 502.08C222.537 502.08 221.79 501.899 221.129 501.536C220.478 501.163 219.966 500.656 219.593 500.016C219.22 499.365 219.033 498.624 219.033 497.792C219.033 496.949 219.22 496.208 219.593 495.568C219.966 494.928 220.478 494.427 221.129 494.064C221.79 493.701 222.537 493.52 223.369 493.52C224.084 493.52 224.729 493.659 225.305 493.936C225.881 494.213 226.334 494.629 226.665 495.184L225.817 495.76C225.529 495.333 225.172 495.019 224.745 494.816C224.318 494.613 223.854 494.512 223.353 494.512C222.756 494.512 222.217 494.651 221.737 494.928C221.257 495.195 220.878 495.573 220.601 496.064C220.324 496.555 220.185 497.131 220.185 497.792C220.185 498.453 220.324 499.029 220.601 499.52C220.878 500.011 221.257 500.395 221.737 500.672C222.217 500.939 222.756 501.072 223.353 501.072C223.854 501.072 224.318 500.971 224.745 500.768C225.172 500.565 225.529 500.256 225.817 499.84L226.665 500.416C226.334 500.96 225.881 501.376 225.305 501.664C224.729 501.941 224.084 502.08 223.369 502.08ZM233.06 493.52C233.742 493.52 234.34 493.653 234.852 493.92C235.374 494.176 235.78 494.571 236.068 495.104C236.366 495.637 236.516 496.309 236.516 497.12V502H235.38V497.232C235.38 496.347 235.156 495.68 234.708 495.232C234.27 494.773 233.652 494.544 232.852 494.544C232.254 494.544 231.732 494.667 231.284 494.912C230.846 495.147 230.505 495.493 230.26 495.952C230.025 496.4 229.908 496.944 229.908 497.584V502H228.772V490.128H229.908V495.904L229.684 495.472C229.95 494.864 230.377 494.389 230.964 494.048C231.55 493.696 232.249 493.52 233.06 493.52Z" fill="#3A3A3A"/>
<path d="M205.702 521V520.184L210.358 515.624C210.785 515.208 211.105 514.845 211.318 514.536C211.531 514.216 211.675 513.917 211.75 513.64C211.825 513.363 211.862 513.101 211.862 512.856C211.862 512.205 211.638 511.693 211.19 511.32C210.753 510.947 210.102 510.76 209.238 510.76C208.577 510.76 207.99 510.861 207.478 511.064C206.977 511.267 206.545 511.581 206.182 512.008L205.366 511.304C205.803 510.792 206.363 510.397 207.046 510.12C207.729 509.843 208.491 509.704 209.334 509.704C210.091 509.704 210.747 509.827 211.302 510.072C211.857 510.307 212.283 510.653 212.582 511.112C212.891 511.571 213.046 512.109 213.046 512.728C213.046 513.091 212.993 513.448 212.886 513.8C212.79 514.152 212.609 514.525 212.342 514.92C212.086 515.304 211.707 515.741 211.206 516.232L206.934 520.424L206.614 519.976H213.558V521H205.702ZM219.437 521.096C218.573 521.096 217.805 520.872 217.133 520.424C216.461 519.965 215.933 519.315 215.549 518.472C215.165 517.619 214.973 516.595 214.973 515.4C214.973 514.205 215.165 513.187 215.549 512.344C215.933 511.491 216.461 510.84 217.133 510.392C217.805 509.933 218.573 509.704 219.437 509.704C220.301 509.704 221.069 509.933 221.741 510.392C222.413 510.84 222.941 511.491 223.325 512.344C223.719 513.187 223.917 514.205 223.917 515.4C223.917 516.595 223.719 517.619 223.325 518.472C222.941 519.315 222.413 519.965 221.741 520.424C221.069 520.872 220.301 521.096 219.437 521.096ZM219.437 520.04C220.098 520.04 220.674 519.864 221.165 519.512C221.655 519.149 222.039 518.627 222.317 517.944C222.594 517.251 222.733 516.403 222.733 515.4C222.733 514.397 222.594 513.555 222.317 512.872C222.039 512.179 221.655 511.656 221.165 511.304C220.674 510.941 220.098 510.76 219.437 510.76C218.797 510.76 218.226 510.941 217.725 511.304C217.223 511.656 216.834 512.179 216.557 512.872C216.279 513.555 216.141 514.397 216.141 515.4C216.141 516.403 216.279 517.251 216.557 517.944C216.834 518.627 217.223 519.149 217.725 519.512C218.226 519.864 218.797 520.04 219.437 520.04ZM227.07 521L234.718 509.8H235.662L228.014 521H227.07ZM227.934 515.8C227.433 515.8 226.99 515.677 226.606 515.432C226.222 515.176 225.924 514.819 225.71 514.36C225.508 513.901 225.406 513.368 225.406 512.76C225.406 512.152 225.508 511.619 225.71 511.16C225.924 510.701 226.222 510.349 226.606 510.104C226.99 509.848 227.433 509.72 227.934 509.72C228.436 509.72 228.873 509.848 229.246 510.104C229.63 510.349 229.929 510.701 230.142 511.16C230.356 511.619 230.462 512.152 230.462 512.76C230.462 513.368 230.356 513.901 230.142 514.36C229.929 514.819 229.63 515.176 229.246 515.432C228.873 515.677 228.436 515.8 227.934 515.8ZM227.934 515.08C228.457 515.08 228.873 514.877 229.182 514.472C229.502 514.056 229.662 513.485 229.662 512.76C229.662 512.035 229.502 511.469 229.182 511.064C228.873 510.648 228.457 510.44 227.934 510.44C227.401 510.44 226.98 510.648 226.67 511.064C226.361 511.469 226.206 512.035 226.206 512.76C226.206 513.485 226.361 514.056 226.67 514.472C226.98 514.877 227.401 515.08 227.934 515.08ZM234.798 521.08C234.308 521.08 233.87 520.957 233.486 520.712C233.102 520.456 232.804 520.099 232.59 519.64C232.377 519.181 232.27 518.648 232.27 518.04C232.27 517.432 232.377 516.899 232.59 516.44C232.804 515.981 233.102 515.629 233.486 515.384C233.87 515.128 234.308 515 234.798 515C235.31 515 235.753 515.128 236.126 515.384C236.51 515.629 236.804 515.981 237.006 516.44C237.22 516.899 237.326 517.432 237.326 518.04C237.326 518.648 237.22 519.181 237.006 519.64C236.804 520.099 236.51 520.456 236.126 520.712C235.753 520.957 235.31 521.08 234.798 521.08ZM234.798 520.36C235.321 520.36 235.737 520.157 236.046 519.752C236.366 519.336 236.526 518.765 236.526 518.04C236.526 517.315 236.366 516.749 236.046 516.344C235.737 515.928 235.321 515.72 234.798 515.72C234.276 515.72 233.854 515.928 233.534 516.344C233.225 516.749 233.07 517.315 233.07 518.04C233.07 518.765 233.225 519.336 233.534 519.752C233.854 520.157 234.276 520.36 234.798 520.36Z" fill="#F8870D"/>
</g>
</g>
</g>
<defs>
<filter id="filter0_ddd_1246_3851" x="0" y="-1" width="590" height="649" filterUnits="userSpaceOnUse" color-interpolation-filters="sRGB">
<feFlood flood-opacity="0" result="BackgroundImageFix"/>
<feColorMatrix in="SourceAlpha" type="matrix" values="0 0 0 0 0 0 0 0 0 0 0 0 0 0 0 0 0 0 127 0" result="hardAlpha"/>
<feOffset/>
<feGaussianBlur stdDeviation="0.5"/>
<feColorMatrix type="matrix" values="0 0 0 0 0 0 0 0 0 0 0 0 0 0 0 0 0 0 0.04 0"/>
<feBlend mode="normal" in2="BackgroundImageFix" result="effect1_dropShadow_1246_3851"/>
<feColorMatrix in="SourceAlpha" type="matrix" values="0 0 0 0 0 0 0 0 0 0 0 0 0 0 0 0 0 0 127 0" result="hardAlpha"/>
<feOffset dy="2"/>
<feGaussianBlur stdDeviation="3"/>
<feColorMatrix type="matrix" values="0 0 0 0 0 0 0 0 0 0 0 0 0 0 0 0 0 0 0.04 0"/>
<feBlend mode="normal" in2="effect1_dropShadow_1246_3851" result="effect2_dropShadow_1246_3851"/>
<feColorMatrix in="SourceAlpha" type="matrix" values="0 0 0 0 0 0 0 0 0 0 0 0 0 0 0 0 0 0 127 0" result="hardAlpha"/>
<feOffset dy="16"/>
<feGaussianBlur stdDeviation="12"/>
<feColorMatrix type="matrix" values="0 0 0 0 0 0 0 0 0 0 0 0 0 0 0 0 0 0 0.06 0"/>
<feBlend mode="normal" in2="effect2_dropShadow_1246_3851" result="effect3_dropShadow_1246_3851"/>
<feBlend mode="normal" in="SourceGraphic" in2="effect3_dropShadow_1246_3851" result="shape"/>
</filter>
<filter id="filter1_ddd_1246_3851" x="0" y="1" width="590" height="649" filterUnits="userSpaceOnUse" color-interpolation-filters="sRGB">
<feFlood flood-opacity="0" result="BackgroundImageFix"/>
<feColorMatrix in="SourceAlpha" type="matrix" values="0 0 0 0 0 0 0 0 0 0 0 0 0 0 0 0 0 0 127 0" result="hardAlpha"/>
<feOffset/>
<feGaussianBlur stdDeviation="0.5"/>
<feColorMatrix type="matrix" values="0 0 0 0 0 0 0 0 0 0 0 0 0 0 0 0 0 0 0.04 0"/>
<feBlend mode="normal" in2="BackgroundImageFix" result="effect1_dropShadow_1246_3851"/>
<feColorMatrix in="SourceAlpha" type="matrix" values="0 0 0 0 0 0 0 0 0 0 0 0 0 0 0 0 0 0 127 0" result="hardAlpha"/>
<feOffset dy="2"/>
<feGaussianBlur stdDeviation="3"/>
<feColorMatrix type="matrix" values="0 0 0 0 0 0 0 0 0 0 0 0 0 0 0 0 0 0 0.04 0"/>
<feBlend mode="normal" in2="effect1_dropShadow_1246_3851" result="effect2_dropShadow_1246_3851"/>
<feColorMatrix in="SourceAlpha" type="matrix" values="0 0 0 0 0 0 0 0 0 0 0 0 0 0 0 0 0 0 127 0" result="hardAlpha"/>
<feOffset dy="16"/>
<feGaussianBlur stdDeviation="12"/>
<feColorMatrix type="matrix" values="0 0 0 0 0 0 0 0 0 0 0 0 0 0 0 0 0 0 0.06 0"/>
<feBlend mode="normal" in2="effect2_dropShadow_1246_3851" result="effect3_dropShadow_1246_3851"/>
<feBlend mode="normal" in="SourceGraphic" in2="effect3_dropShadow_1246_3851" result="shape"/>
</filter>
<clipPath id="clip0_1246_3851">
<rect x="24" y="7" width="542" height="601" rx="10" fill="white"/>
</clipPath>
</defs>
</svg>
