<svg width="48" height="49" viewBox="0 0 48 49" fill="none" xmlns="http://www.w3.org/2000/svg">
<circle cx="24" cy="24.0908" r="24" fill="#F5BD23" fill-opacity="0.1"/>
<path d="M30.0683 13.277C30.1894 13.2864 30.2983 13.2957 30.3935 13.3045L30.3235 16.074C30.2379 16.0734 30.1428 16.0728 30.0399 16.0721C29.5691 16.0691 28.932 16.0662 28.2668 16.0662C27.4878 16.0662 26.8782 16.2444 26.5008 16.7264C26.1486 17.1762 26.0998 17.7763 26.0998 18.3273V21.2378V21.7378H26.5998H30.401L30.26 24.7237H26.5998H26.0998V25.2237V35.7943H22.8853V25.2237V24.7237H22.3853H19.958V21.7378H22.3853H22.8853V21.2378V17.8333C22.8853 16.6014 23.2825 15.4527 24.1049 14.6141C24.9232 13.7798 26.2128 13.2012 28.0988 13.2012C28.8899 13.2012 29.5783 13.2391 30.0683 13.277Z" fill="#F8870D" stroke="#F8870D"/>
</svg>
