<svg width="48" height="49" viewBox="0 0 48 49" fill="none" xmlns="http://www.w3.org/2000/svg">
<circle cx="23.9998" cy="24.0908" r="24" fill="#F5BD23" fill-opacity="0.1"/>
<path d="M31.6348 18.1971C31.6348 17.1389 30.7794 16.2835 29.7212 16.2835C28.663 16.2835 27.8076 17.1389 27.8076 18.1971C27.8076 19.2552 28.6629 20.1105 29.721 20.1107C29.9723 20.1109 30.2213 20.0616 30.4535 19.9656C30.6859 19.8695 30.8971 19.7285 31.0749 19.5507C31.2527 19.3729 31.3937 19.1617 31.4898 18.9294C31.5858 18.6972 31.6351 18.4483 31.6348 18.1971ZM31.6348 18.1971H31.1348L31.6348 18.1964C31.6348 18.1967 31.6348 18.1969 31.6348 18.1971ZM34.6431 19.6526L34.643 19.6526L34.6433 19.6565C34.7227 21.0687 34.7212 22.4719 34.7196 23.9006C34.7194 24.0992 34.7192 24.2982 34.7192 24.4978C34.7192 24.7214 34.7195 24.9443 34.7199 25.1666C34.7219 26.5711 34.7239 27.9501 34.6433 29.3382L34.6431 29.3429C34.5546 31.169 34.1462 32.699 32.8854 33.9597C31.6276 35.2176 30.0946 35.6289 28.2687 35.7173L28.2687 35.7173L28.2648 35.7175C26.8525 35.797 25.4493 35.7955 24.0206 35.7939C23.8221 35.7937 23.6231 35.7935 23.4235 35.7935C23.2243 35.7935 23.0257 35.7937 22.8275 35.7939C21.4007 35.7955 19.9971 35.797 18.5822 35.7175L18.5783 35.7173C16.7522 35.6289 15.2223 35.2204 13.9616 33.9597C12.7037 32.7018 12.2924 31.1688 12.204 29.3429L12.2037 29.3391C12.1243 27.9267 12.1258 26.5212 12.1274 25.0938C12.1276 24.8956 12.1278 24.6969 12.1278 24.4978C12.1278 24.2986 12.1276 24.0999 12.1274 23.9018C12.1258 22.4749 12.1243 21.0713 12.2037 19.6564L12.2038 19.6564L12.2039 19.6526C12.2924 17.8265 12.7008 16.2965 13.9616 15.0358C15.2194 13.7779 16.7524 13.3666 18.5783 13.2782L18.5783 13.2782L18.5822 13.278C19.9944 13.1985 21.3977 13.2001 22.8264 13.2016C23.0249 13.2018 23.2239 13.202 23.4235 13.202C23.6227 13.202 23.8213 13.2018 24.0195 13.2016C25.4463 13.2001 26.8499 13.1985 28.2648 13.278L28.2648 13.278L28.2687 13.2782C30.0948 13.3666 31.6247 13.7751 32.8854 15.0358C34.1433 16.2937 34.5546 17.8267 34.6431 19.6526ZM19.9867 24.4978C19.9867 22.6078 21.5306 21.0639 23.4205 21.0639C25.3105 21.0639 26.8544 22.6078 26.8544 24.4978C26.8544 26.3878 25.3105 27.9316 23.4205 27.9316C21.5306 27.9316 19.9867 26.3878 19.9867 24.4978ZM33.239 34.3133C34.6231 32.9292 35.051 31.2559 35.1425 29.3671L11.7045 19.6284C11.6242 21.0586 11.6258 22.4775 11.6274 23.9029C11.6276 24.1011 11.6278 24.2993 11.6278 24.4978C11.6278 24.6962 11.6276 24.8944 11.6274 25.0926C11.6258 26.5186 11.6242 27.9395 11.7045 29.3671C11.796 31.2559 12.2269 32.9321 13.608 34.3133C14.9921 35.6973 16.6654 36.1253 18.5541 36.2167C19.9844 36.2971 21.4032 36.2955 22.8287 36.2939C23.0268 36.2937 23.2251 36.2935 23.4235 36.2935C23.6223 36.2935 23.8209 36.2937 24.0194 36.2939C25.4468 36.2955 26.8653 36.2971 28.2929 36.2167C30.1816 36.1253 31.8579 35.6944 33.239 34.3133ZM16.8678 24.4978C16.8678 28.1234 19.7949 31.0505 23.4205 31.0505C27.0462 31.0505 29.9733 28.1234 29.9733 24.4978C29.9733 20.8721 27.0462 17.945 23.4205 17.945C19.7949 17.945 16.8678 20.8721 16.8678 24.4978Z" fill="#F8870D" stroke="#F8870D"/>
</svg>
