<svg width="48" height="49" viewBox="0 0 48 49" fill="none" xmlns="http://www.w3.org/2000/svg">
<circle cx="24" cy="24.0908" r="24" fill="#F5BD23" fill-opacity="0.1"/>
<path d="M17.7701 15.3023V15.3021C17.7701 14.6376 17.5042 14.0008 17.0299 13.5303C16.5539 13.0594 15.909 12.7939 15.236 12.7939H15.2358C14.5645 12.7937 13.9203 13.0584 13.4431 13.5305L17.7701 15.3023ZM17.7701 15.3023C17.7703 15.6315 17.705 15.9575 17.578 16.2613C17.4511 16.5651 17.265 16.8407 17.0306 17.0719L17.0294 17.0732M17.7701 15.3023L17.0294 17.0732M17.0294 17.0732C16.5529 17.5468 15.9079 17.8118 15.2361 17.8102L15.2352 17.8102M17.0294 17.0732L15.2352 17.8102M15.2352 17.8102C14.5639 17.8098 13.9199 17.5452 13.4421 17.0738M15.2352 17.8102L13.4421 17.0738M13.4421 17.0738C13.2085 16.8415 13.023 16.5655 12.8962 16.2615C12.7694 15.9573 12.7038 15.6312 12.7031 15.3016C12.7032 14.6368 12.9683 14.0005 13.4431 13.5306L13.4421 17.0738ZM35.2963 27.3971V35.3871H31.5777V28.4411C31.5777 27.1136 31.4203 25.9944 31.0055 25.1913C30.7937 24.7811 30.5083 24.4409 30.133 24.2056C29.7565 23.9694 29.3205 23.8583 28.8399 23.8583C27.5918 23.8583 26.6399 24.3119 26.0212 25.1714C25.4234 26.0018 25.1854 27.1446 25.1854 28.4399V35.3871H21.4668V21.015H24.8481V22.6974L25.7948 22.922C26.3261 21.8653 27.751 20.8144 30.0289 20.8144C32.2726 20.8144 33.5251 21.412 34.2542 22.4282C35.0145 23.488 35.2963 25.1168 35.2963 27.3971ZM17.0942 20.8144V35.1866H13.3755V20.8144H17.0942Z" fill="#F8870D" stroke="#F8870D"/>
</svg>
