<svg width="48" height="49" viewBox="0 0 48 49" fill="none" xmlns="http://www.w3.org/2000/svg">
<circle cx="24" cy="24.0908" r="24" fill="#F5BD23" fill-opacity="0.1"/>
<path d="M33.789 16.916L34.1053 17.8415C34.6569 17.7754 35.1958 17.671 35.7199 17.5305C35.2483 18.0387 34.7269 18.5004 34.1628 18.9083L33.9442 19.0664L33.9564 19.336C33.9666 19.5636 33.9723 19.7927 33.9723 20.0188C33.9723 27.0165 28.6495 35.048 18.9419 35.048H18.9414C16.7471 35.0504 14.5879 34.5695 12.6139 33.6493C14.9221 33.5042 17.1389 32.6629 18.9671 31.2277L20.0721 30.3602L18.6676 30.3345C17.6329 30.3155 16.63 29.9735 15.7994 29.3562C15.186 28.9003 14.6891 28.3112 14.3437 27.6374C14.9526 27.6623 15.5635 27.5943 16.1551 27.4341L16.1235 26.4614C15.0012 26.2346 13.992 25.6265 13.267 24.7403C12.6987 24.0457 12.3326 23.2138 12.2008 22.3352C12.8079 22.5633 13.4502 22.6912 14.1023 22.7119L15.8501 22.7675L14.3959 21.7964C13.717 21.343 13.1605 20.729 12.7758 20.009C12.3911 19.289 12.1901 18.4851 12.1905 17.6688V17.6685C12.1905 17.0191 12.3159 16.3985 12.5434 15.8286C13.8653 17.303 15.4511 18.5209 17.2213 19.4184C19.222 20.4327 21.4136 21.015 23.6539 21.1274L24.3175 21.1608L24.1657 20.5139C23.9162 19.4503 24.0247 18.3341 24.4745 17.3386C24.9244 16.343 25.6903 15.5238 26.6534 15.0082C27.6165 14.4925 28.7229 14.3093 29.8008 14.4869C30.8787 14.6645 31.8678 15.193 32.6146 15.9903L32.804 16.1925L33.0759 16.1392C33.8583 15.9856 34.6211 15.7506 35.3519 15.4388C34.9481 16.0347 34.4164 16.5406 33.789 16.916Z" fill="#F8870D" stroke="#F8870D"/>
</svg>
