<svg width="48" height="49" viewBox="0 0 48 49" fill="none" xmlns="http://www.w3.org/2000/svg">
<circle cx="24" cy="24.0908" r="24" fill="#F5BD23" fill-opacity="0.1"/>
<path d="M23.9839 34.3209L23.9838 33.8209H23.9835H23.9823L23.9775 33.8209L23.958 33.8209L23.8811 33.8207C23.8136 33.8206 23.7141 33.8203 23.5866 33.8197C23.3314 33.8185 22.9642 33.8162 22.516 33.8114C21.6196 33.802 20.4005 33.7831 19.1092 33.7453C17.8171 33.7075 16.4566 33.6508 15.2759 33.5662C14.0832 33.4808 13.1142 33.3692 12.5797 33.2307C12.0344 33.0855 11.5426 32.8128 11.1503 32.4396L10.8057 32.8018L11.1503 32.4396C10.7631 32.0711 10.4859 31.6193 10.3411 31.1279C9.93604 28.9392 9.74018 26.7207 9.75465 24.4998L9.75469 24.4998L9.75465 24.4933C9.74053 22.2707 9.93681 20.0518 10.3408 17.8663C10.4894 17.3711 10.7685 16.916 11.1554 16.5435C11.5488 16.1679 12.0269 15.8929 12.5491 15.7416C16.3436 15.3188 20.1604 15.1286 23.9782 15.1721V15.1721H23.9839V14.6721L23.984 15.1721L23.9842 15.1721L23.9854 15.1721L23.9903 15.1721L24.0099 15.1721L24.0871 15.1723C24.155 15.1724 24.255 15.1727 24.3831 15.1733C24.6394 15.1745 25.0084 15.1768 25.4584 15.1816C26.3586 15.1911 27.5824 15.21 28.8775 15.2479C30.1733 15.2858 31.5366 15.3425 32.7172 15.4273C33.9115 15.513 34.8772 15.625 35.4026 15.7635L35.4049 15.7641C35.9389 15.902 36.4289 16.1738 36.8287 16.5537L36.8292 16.5541C37.2084 16.9136 37.4842 17.3681 37.628 17.8702C38.0581 20.0592 38.2592 22.2871 38.2279 24.5177L38.2278 24.5177L38.2278 24.528C38.2422 26.7523 38.0404 28.9727 37.6255 31.1579C37.482 31.6583 37.2071 32.1113 36.8291 32.4696L36.8287 32.47C36.4372 32.8421 35.9592 33.1104 35.438 33.2509C31.6371 33.6741 27.8138 33.8644 23.9896 33.8209L23.9896 33.8209H23.9839V34.3209ZM20.5464 28.7013V29.5446L21.2863 29.14L28.9739 24.9364L29.776 24.4978L28.9739 24.0591L21.2863 19.8542L20.5464 19.4495V20.2929V28.7013Z" fill="#F8870D" stroke="#F8870D"/>
</svg>
