<svg width="580" height="293" viewBox="0 0 580 293" fill="none" xmlns="http://www.w3.org/2000/svg">
<circle cx="346.915" cy="4.44676" r="4.44676" fill="#F8870D" fill-opacity="0.5"/>
<circle cx="346.915" cy="42.2339" r="4.44676" fill="#F8870D" fill-opacity="0.5"/>
<circle cx="346.915" cy="80.021" r="4.44676" fill="#F8870D" fill-opacity="0.5"/>
<circle cx="346.915" cy="117.808" r="4.44676" fill="#F8870D" fill-opacity="0.5"/>
<circle cx="346.915" cy="155.595" r="4.44676" fill="#F8870D" fill-opacity="0.5"/>
<circle cx="346.915" cy="23.3403" r="4.44676" fill="#F8870D" fill-opacity="0.5"/>
<circle cx="346.915" cy="61.1274" r="4.44676" fill="#F8870D" fill-opacity="0.5"/>
<circle cx="346.915" cy="98.9145" r="4.44676" fill="#F8870D" fill-opacity="0.5"/>
<circle cx="346.915" cy="136.702" r="4.44676" fill="#F8870D" fill-opacity="0.5"/>
<circle cx="346.915" cy="174.488" r="4.44676" fill="#F8870D" fill-opacity="0.5"/>
<circle cx="232.447" cy="4.44676" r="4.44676" fill="#F8870D" fill-opacity="0.5"/>
<circle cx="232.447" cy="42.2338" r="4.44676" fill="#F8870D" fill-opacity="0.5"/>
<circle cx="232.447" cy="80.0208" r="4.44676" fill="#F8870D" fill-opacity="0.5"/>
<circle cx="232.447" cy="117.808" r="4.44676" fill="#F8870D" fill-opacity="0.5"/>
<circle cx="232.447" cy="155.595" r="4.44676" fill="#F8870D" fill-opacity="0.5"/>
<circle cx="232.447" cy="23.3403" r="4.44676" fill="#F8870D" fill-opacity="0.5"/>
<circle cx="232.447" cy="61.1273" r="4.44676" fill="#F8870D" fill-opacity="0.5"/>
<circle cx="232.447" cy="98.9143" r="4.44676" fill="#F8870D" fill-opacity="0.5"/>
<circle cx="232.447" cy="136.701" r="4.44676" fill="#F8870D" fill-opacity="0.5"/>
<circle cx="232.447" cy="174.488" r="4.44676" fill="#F8870D" fill-opacity="0.5"/>
<circle cx="369.808" cy="4.44676" r="4.44676" fill="#F8870D" fill-opacity="0.5"/>
<circle cx="369.808" cy="42.2338" r="4.44676" fill="#F8870D" fill-opacity="0.5"/>
<circle cx="369.808" cy="80.0208" r="4.44676" fill="#F8870D" fill-opacity="0.5"/>
<circle cx="369.808" cy="117.808" r="4.44676" fill="#F8870D" fill-opacity="0.5"/>
<circle cx="369.808" cy="155.595" r="4.44676" fill="#F8870D" fill-opacity="0.5"/>
<circle cx="369.808" cy="23.3403" r="4.44676" fill="#F8870D" fill-opacity="0.5"/>
<circle cx="369.808" cy="61.1273" r="4.44676" fill="#F8870D" fill-opacity="0.5"/>
<circle cx="369.808" cy="98.9143" r="4.44676" fill="#F8870D" fill-opacity="0.5"/>
<circle cx="369.808" cy="136.701" r="4.44676" fill="#F8870D" fill-opacity="0.5"/>
<circle cx="369.808" cy="174.488" r="4.44676" fill="#F8870D" fill-opacity="0.5"/>
<circle cx="255.34" cy="4.44676" r="4.44676" fill="#F8870D" fill-opacity="0.5"/>
<circle cx="255.34" cy="42.2338" r="4.44676" fill="#F8870D" fill-opacity="0.5"/>
<circle cx="255.34" cy="80.0208" r="4.44676" fill="#F8870D" fill-opacity="0.5"/>
<circle cx="255.34" cy="117.808" r="4.44676" fill="#F8870D" fill-opacity="0.5"/>
<circle cx="255.34" cy="155.595" r="4.44676" fill="#F8870D" fill-opacity="0.5"/>
<circle cx="255.34" cy="23.3403" r="4.44676" fill="#F8870D" fill-opacity="0.5"/>
<circle cx="255.34" cy="61.1273" r="4.44676" fill="#F8870D" fill-opacity="0.5"/>
<circle cx="255.34" cy="98.9143" r="4.44676" fill="#F8870D" fill-opacity="0.5"/>
<circle cx="255.34" cy="136.701" r="4.44676" fill="#F8870D" fill-opacity="0.5"/>
<circle cx="255.34" cy="174.488" r="4.44676" fill="#F8870D" fill-opacity="0.5"/>
<circle cx="392.701" cy="4.44676" r="4.44676" fill="#F8870D" fill-opacity="0.5"/>
<circle cx="392.701" cy="42.2339" r="4.44676" fill="#F8870D" fill-opacity="0.5"/>
<circle cx="392.701" cy="80.021" r="4.44676" fill="#F8870D" fill-opacity="0.5"/>
<circle cx="392.701" cy="117.808" r="4.44676" fill="#F8870D" fill-opacity="0.5"/>
<circle cx="392.701" cy="155.595" r="4.44676" fill="#F8870D" fill-opacity="0.5"/>
<circle cx="392.701" cy="23.3403" r="4.44676" fill="#F8870D" fill-opacity="0.5"/>
<circle cx="392.701" cy="61.1274" r="4.44676" fill="#F8870D" fill-opacity="0.5"/>
<circle cx="392.701" cy="98.9145" r="4.44676" fill="#F8870D" fill-opacity="0.5"/>
<circle cx="392.701" cy="136.702" r="4.44676" fill="#F8870D" fill-opacity="0.5"/>
<circle cx="392.701" cy="174.488" r="4.44676" fill="#F8870D" fill-opacity="0.5"/>
<circle cx="278.234" cy="4.44676" r="4.44676" fill="#F8870D" fill-opacity="0.5"/>
<circle cx="278.234" cy="42.2338" r="4.44676" fill="#F8870D" fill-opacity="0.5"/>
<circle cx="278.234" cy="80.0208" r="4.44676" fill="#F8870D" fill-opacity="0.5"/>
<circle cx="278.234" cy="117.808" r="4.44676" fill="#F8870D" fill-opacity="0.5"/>
<circle cx="278.234" cy="155.595" r="4.44676" fill="#F8870D" fill-opacity="0.5"/>
<circle cx="278.234" cy="23.3403" r="4.44676" fill="#F8870D" fill-opacity="0.5"/>
<circle cx="278.234" cy="61.1273" r="4.44676" fill="#F8870D" fill-opacity="0.5"/>
<circle cx="278.234" cy="98.9143" r="4.44676" fill="#F8870D" fill-opacity="0.5"/>
<circle cx="278.234" cy="136.701" r="4.44676" fill="#F8870D" fill-opacity="0.5"/>
<circle cx="278.234" cy="174.488" r="4.44676" fill="#F8870D" fill-opacity="0.5"/>
<circle cx="415.595" cy="4.44676" r="4.44676" fill="#F8870D" fill-opacity="0.5"/>
<circle cx="415.595" cy="42.2338" r="4.44676" fill="#F8870D" fill-opacity="0.5"/>
<circle cx="415.595" cy="80.0208" r="4.44676" fill="#F8870D" fill-opacity="0.5"/>
<circle cx="415.595" cy="117.808" r="4.44676" fill="#F8870D" fill-opacity="0.5"/>
<circle cx="415.595" cy="155.595" r="4.44676" fill="#F8870D" fill-opacity="0.5"/>
<circle cx="415.595" cy="23.3403" r="4.44676" fill="#F8870D" fill-opacity="0.5"/>
<circle cx="415.595" cy="61.1273" r="4.44676" fill="#F8870D" fill-opacity="0.5"/>
<circle cx="415.595" cy="98.9143" r="4.44676" fill="#F8870D" fill-opacity="0.5"/>
<circle cx="415.595" cy="136.701" r="4.44676" fill="#F8870D" fill-opacity="0.5"/>
<circle cx="415.595" cy="174.488" r="4.44676" fill="#F8870D" fill-opacity="0.5"/>
<circle cx="301.127" cy="4.44676" r="4.44676" fill="#F8870D" fill-opacity="0.5"/>
<circle cx="301.127" cy="42.2338" r="4.44676" fill="#F8870D" fill-opacity="0.5"/>
<circle cx="301.127" cy="80.0208" r="4.44676" fill="#F8870D" fill-opacity="0.5"/>
<circle cx="301.127" cy="117.808" r="4.44676" fill="#F8870D" fill-opacity="0.5"/>
<circle cx="301.127" cy="155.595" r="4.44676" fill="#F8870D" fill-opacity="0.5"/>
<circle cx="301.127" cy="23.3403" r="4.44676" fill="#F8870D" fill-opacity="0.5"/>
<circle cx="301.127" cy="61.1273" r="4.44676" fill="#F8870D" fill-opacity="0.5"/>
<circle cx="301.127" cy="98.9143" r="4.44676" fill="#F8870D" fill-opacity="0.5"/>
<circle cx="301.127" cy="136.701" r="4.44676" fill="#F8870D" fill-opacity="0.5"/>
<circle cx="301.127" cy="174.488" r="4.44676" fill="#F8870D" fill-opacity="0.5"/>
<circle cx="438.49" cy="4.44676" r="4.44676" fill="#F8870D" fill-opacity="0.5"/>
<circle cx="438.49" cy="42.2339" r="4.44676" fill="#F8870D" fill-opacity="0.5"/>
<circle cx="438.49" cy="80.021" r="4.44676" fill="#F8870D" fill-opacity="0.5"/>
<circle cx="438.49" cy="117.808" r="4.44676" fill="#F8870D" fill-opacity="0.5"/>
<circle cx="438.49" cy="155.595" r="4.44676" fill="#F8870D" fill-opacity="0.5"/>
<circle cx="438.49" cy="23.3403" r="4.44676" fill="#F8870D" fill-opacity="0.5"/>
<circle cx="438.49" cy="61.1274" r="4.44676" fill="#F8870D" fill-opacity="0.5"/>
<circle cx="438.49" cy="98.9145" r="4.44676" fill="#F8870D" fill-opacity="0.5"/>
<circle cx="438.49" cy="136.702" r="4.44676" fill="#F8870D" fill-opacity="0.5"/>
<circle cx="438.49" cy="174.488" r="4.44676" fill="#F8870D" fill-opacity="0.5"/>
<circle cx="324.021" cy="4.44676" r="4.44676" fill="#F8870D" fill-opacity="0.5"/>
<circle cx="324.021" cy="42.2338" r="4.44676" fill="#F8870D" fill-opacity="0.5"/>
<circle cx="324.021" cy="80.0208" r="4.44676" fill="#F8870D" fill-opacity="0.5"/>
<circle cx="324.021" cy="117.808" r="4.44676" fill="#F8870D" fill-opacity="0.5"/>
<circle cx="324.021" cy="155.595" r="4.44676" fill="#F8870D" fill-opacity="0.5"/>
<circle cx="324.021" cy="23.3403" r="4.44676" fill="#F8870D" fill-opacity="0.5"/>
<circle cx="324.021" cy="61.1273" r="4.44676" fill="#F8870D" fill-opacity="0.5"/>
<circle cx="324.021" cy="98.9143" r="4.44676" fill="#F8870D" fill-opacity="0.5"/>
<circle cx="324.021" cy="136.701" r="4.44676" fill="#F8870D" fill-opacity="0.5"/>
<circle cx="324.021" cy="174.488" r="4.44676" fill="#F8870D" fill-opacity="0.5"/>
<circle cx="346.915" cy="193.595" r="4.44676" fill="#F8870D" fill-opacity="0.5"/>
<circle cx="346.915" cy="212.488" r="4.44676" fill="#F8870D" fill-opacity="0.5"/>
<circle cx="232.447" cy="193.595" r="4.44676" fill="#F8870D" fill-opacity="0.5"/>
<circle cx="232.447" cy="212.488" r="4.44676" fill="#F8870D" fill-opacity="0.5"/>
<circle cx="369.808" cy="193.595" r="4.44676" fill="#F8870D" fill-opacity="0.5"/>
<circle cx="369.808" cy="212.488" r="4.44676" fill="#F8870D" fill-opacity="0.5"/>
<circle cx="255.34" cy="193.595" r="4.44676" fill="#F8870D" fill-opacity="0.5"/>
<circle cx="255.34" cy="212.488" r="4.44676" fill="#F8870D" fill-opacity="0.5"/>
<circle cx="392.701" cy="193.595" r="4.44676" fill="#F8870D" fill-opacity="0.5"/>
<circle cx="392.701" cy="212.488" r="4.44676" fill="#F8870D" fill-opacity="0.5"/>
<circle cx="278.234" cy="193.595" r="4.44676" fill="#F8870D" fill-opacity="0.5"/>
<circle cx="278.234" cy="212.488" r="4.44676" fill="#F8870D" fill-opacity="0.5"/>
<circle cx="415.595" cy="193.595" r="4.44676" fill="#F8870D" fill-opacity="0.5"/>
<circle cx="415.595" cy="212.488" r="4.44676" fill="#F8870D" fill-opacity="0.5"/>
<circle cx="301.127" cy="193.595" r="4.44676" fill="#F8870D" fill-opacity="0.5"/>
<circle cx="301.127" cy="212.488" r="4.44676" fill="#F8870D" fill-opacity="0.5"/>
<circle cx="438.49" cy="193.595" r="4.44676" fill="#F8870D" fill-opacity="0.5"/>
<circle cx="438.49" cy="212.488" r="4.44676" fill="#F8870D" fill-opacity="0.5"/>
<circle cx="324.021" cy="193.595" r="4.44676" fill="#F8870D" fill-opacity="0.5"/>
<circle cx="324.021" cy="212.488" r="4.44676" fill="#F8870D" fill-opacity="0.5"/>
<circle cx="118.916" cy="4.44676" r="4.44676" fill="#F8870D" fill-opacity="0.5"/>
<circle cx="118.916" cy="42.2339" r="4.44676" fill="#F8870D" fill-opacity="0.5"/>
<circle cx="118.916" cy="80.021" r="4.44676" fill="#F8870D" fill-opacity="0.5"/>
<circle cx="118.916" cy="117.808" r="4.44676" fill="#F8870D" fill-opacity="0.5"/>
<circle cx="118.916" cy="155.595" r="4.44676" fill="#F8870D" fill-opacity="0.5"/>
<circle cx="118.916" cy="23.3403" r="4.44676" fill="#F8870D" fill-opacity="0.5"/>
<circle cx="118.916" cy="61.1274" r="4.44676" fill="#F8870D" fill-opacity="0.5"/>
<circle cx="118.916" cy="98.9145" r="4.44676" fill="#F8870D" fill-opacity="0.5"/>
<circle cx="118.916" cy="136.702" r="4.44676" fill="#F8870D" fill-opacity="0.5"/>
<circle cx="118.916" cy="174.488" r="4.44676" fill="#F8870D" fill-opacity="0.5"/>
<circle cx="4.44676" cy="4.44676" r="4.44676" fill="#F8870D" fill-opacity="0.5"/>
<circle cx="4.44676" cy="42.2338" r="4.44676" fill="#F8870D" fill-opacity="0.5"/>
<circle cx="4.44676" cy="80.0208" r="4.44676" fill="#F8870D" fill-opacity="0.5"/>
<circle cx="4.44676" cy="117.808" r="4.44676" fill="#F8870D" fill-opacity="0.5"/>
<circle cx="4.44676" cy="155.595" r="4.44676" fill="#F8870D" fill-opacity="0.5"/>
<circle cx="4.44676" cy="23.3403" r="4.44676" fill="#F8870D" fill-opacity="0.5"/>
<circle cx="4.44676" cy="61.1273" r="4.44676" fill="#F8870D" fill-opacity="0.5"/>
<circle cx="4.44676" cy="98.9143" r="4.44676" fill="#F8870D" fill-opacity="0.5"/>
<circle cx="4.44676" cy="136.701" r="4.44676" fill="#F8870D" fill-opacity="0.5"/>
<circle cx="4.44676" cy="174.488" r="4.44676" fill="#F8870D" fill-opacity="0.5"/>
<circle cx="141.808" cy="4.44676" r="4.44676" fill="#F8870D" fill-opacity="0.5"/>
<circle cx="141.808" cy="42.2338" r="4.44676" fill="#F8870D" fill-opacity="0.5"/>
<circle cx="141.808" cy="80.0208" r="4.44676" fill="#F8870D" fill-opacity="0.5"/>
<circle cx="141.808" cy="117.808" r="4.44676" fill="#F8870D" fill-opacity="0.5"/>
<circle cx="141.808" cy="155.595" r="4.44676" fill="#F8870D" fill-opacity="0.5"/>
<circle cx="141.808" cy="23.3403" r="4.44676" fill="#F8870D" fill-opacity="0.5"/>
<circle cx="141.808" cy="61.1273" r="4.44676" fill="#F8870D" fill-opacity="0.5"/>
<circle cx="141.808" cy="98.9143" r="4.44676" fill="#F8870D" fill-opacity="0.5"/>
<circle cx="141.808" cy="136.701" r="4.44676" fill="#F8870D" fill-opacity="0.5"/>
<circle cx="141.808" cy="174.488" r="4.44676" fill="#F8870D" fill-opacity="0.5"/>
<circle cx="27.3403" cy="4.44676" r="4.44676" fill="#F8870D" fill-opacity="0.5"/>
<circle cx="27.3403" cy="42.2338" r="4.44676" fill="#F8870D" fill-opacity="0.5"/>
<circle cx="27.3403" cy="80.0208" r="4.44676" fill="#F8870D" fill-opacity="0.5"/>
<circle cx="27.3403" cy="117.808" r="4.44676" fill="#F8870D" fill-opacity="0.5"/>
<circle cx="27.3403" cy="155.595" r="4.44676" fill="#F8870D" fill-opacity="0.5"/>
<circle cx="27.3403" cy="23.3403" r="4.44676" fill="#F8870D" fill-opacity="0.5"/>
<circle cx="27.3403" cy="61.1273" r="4.44676" fill="#F8870D" fill-opacity="0.5"/>
<circle cx="27.3403" cy="98.9143" r="4.44676" fill="#F8870D" fill-opacity="0.5"/>
<circle cx="27.3403" cy="136.701" r="4.44676" fill="#F8870D" fill-opacity="0.5"/>
<circle cx="27.3403" cy="174.488" r="4.44676" fill="#F8870D" fill-opacity="0.5"/>
<circle cx="164.701" cy="4.44676" r="4.44676" fill="#F8870D" fill-opacity="0.5"/>
<circle cx="164.701" cy="42.2339" r="4.44676" fill="#F8870D" fill-opacity="0.5"/>
<circle cx="164.701" cy="80.021" r="4.44676" fill="#F8870D" fill-opacity="0.5"/>
<circle cx="164.701" cy="117.808" r="4.44676" fill="#F8870D" fill-opacity="0.5"/>
<circle cx="164.701" cy="155.595" r="4.44676" fill="#F8870D" fill-opacity="0.5"/>
<circle cx="164.701" cy="23.3403" r="4.44676" fill="#F8870D" fill-opacity="0.5"/>
<circle cx="164.701" cy="61.1274" r="4.44676" fill="#F8870D" fill-opacity="0.5"/>
<circle cx="164.701" cy="98.9145" r="4.44676" fill="#F8870D" fill-opacity="0.5"/>
<circle cx="164.701" cy="136.702" r="4.44676" fill="#F8870D" fill-opacity="0.5"/>
<circle cx="164.701" cy="174.488" r="4.44676" fill="#F8870D" fill-opacity="0.5"/>
<circle cx="50.2339" cy="4.44676" r="4.44676" fill="#F8870D" fill-opacity="0.5"/>
<circle cx="50.2339" cy="42.2338" r="4.44676" fill="#F8870D" fill-opacity="0.5"/>
<circle cx="50.2339" cy="80.0208" r="4.44676" fill="#F8870D" fill-opacity="0.5"/>
<circle cx="50.2339" cy="117.808" r="4.44676" fill="#F8870D" fill-opacity="0.5"/>
<circle cx="50.2339" cy="155.595" r="4.44676" fill="#F8870D" fill-opacity="0.5"/>
<circle cx="50.2339" cy="23.3403" r="4.44676" fill="#F8870D" fill-opacity="0.5"/>
<circle cx="50.2339" cy="61.1273" r="4.44676" fill="#F8870D" fill-opacity="0.5"/>
<circle cx="50.2339" cy="98.9143" r="4.44676" fill="#F8870D" fill-opacity="0.5"/>
<circle cx="50.2339" cy="136.701" r="4.44676" fill="#F8870D" fill-opacity="0.5"/>
<circle cx="50.2339" cy="174.488" r="4.44676" fill="#F8870D" fill-opacity="0.5"/>
<circle cx="187.595" cy="4.44676" r="4.44676" fill="#F8870D" fill-opacity="0.5"/>
<circle cx="187.595" cy="42.2338" r="4.44676" fill="#F8870D" fill-opacity="0.5"/>
<circle cx="187.595" cy="80.0208" r="4.44676" fill="#F8870D" fill-opacity="0.5"/>
<circle cx="187.595" cy="117.808" r="4.44676" fill="#F8870D" fill-opacity="0.5"/>
<circle cx="187.595" cy="155.595" r="4.44676" fill="#F8870D" fill-opacity="0.5"/>
<circle cx="187.595" cy="23.3403" r="4.44676" fill="#F8870D" fill-opacity="0.5"/>
<circle cx="187.595" cy="61.1273" r="4.44676" fill="#F8870D" fill-opacity="0.5"/>
<circle cx="187.595" cy="98.9143" r="4.44676" fill="#F8870D" fill-opacity="0.5"/>
<circle cx="187.595" cy="136.701" r="4.44676" fill="#F8870D" fill-opacity="0.5"/>
<circle cx="187.595" cy="174.488" r="4.44676" fill="#F8870D" fill-opacity="0.5"/>
<circle cx="73.1274" cy="4.44676" r="4.44676" fill="#F8870D" fill-opacity="0.5"/>
<circle cx="73.1274" cy="42.2338" r="4.44676" fill="#F8870D" fill-opacity="0.5"/>
<circle cx="73.1274" cy="80.0208" r="4.44676" fill="#F8870D" fill-opacity="0.5"/>
<circle cx="73.1274" cy="117.808" r="4.44676" fill="#F8870D" fill-opacity="0.5"/>
<circle cx="73.1274" cy="155.595" r="4.44676" fill="#F8870D" fill-opacity="0.5"/>
<circle cx="73.1274" cy="23.3403" r="4.44676" fill="#F8870D" fill-opacity="0.5"/>
<circle cx="73.1274" cy="61.1273" r="4.44676" fill="#F8870D" fill-opacity="0.5"/>
<circle cx="73.1274" cy="98.9143" r="4.44676" fill="#F8870D" fill-opacity="0.5"/>
<circle cx="73.1274" cy="136.701" r="4.44676" fill="#F8870D" fill-opacity="0.5"/>
<circle cx="73.1274" cy="174.488" r="4.44676" fill="#F8870D" fill-opacity="0.5"/>
<circle cx="210.49" cy="4.44676" r="4.44676" fill="#F8870D" fill-opacity="0.5"/>
<circle cx="210.49" cy="42.2339" r="4.44676" fill="#F8870D" fill-opacity="0.5"/>
<circle cx="210.49" cy="80.021" r="4.44676" fill="#F8870D" fill-opacity="0.5"/>
<circle cx="210.49" cy="117.808" r="4.44676" fill="#F8870D" fill-opacity="0.5"/>
<circle cx="210.49" cy="155.595" r="4.44676" fill="#F8870D" fill-opacity="0.5"/>
<circle cx="210.49" cy="23.3403" r="4.44676" fill="#F8870D" fill-opacity="0.5"/>
<circle cx="210.49" cy="61.1274" r="4.44676" fill="#F8870D" fill-opacity="0.5"/>
<circle cx="210.49" cy="98.9145" r="4.44676" fill="#F8870D" fill-opacity="0.5"/>
<circle cx="210.49" cy="136.702" r="4.44676" fill="#F8870D" fill-opacity="0.5"/>
<circle cx="210.49" cy="174.488" r="4.44676" fill="#F8870D" fill-opacity="0.5"/>
<circle cx="96.021" cy="4.44676" r="4.44676" fill="#F8870D" fill-opacity="0.5"/>
<circle cx="96.021" cy="42.2338" r="4.44676" fill="#F8870D" fill-opacity="0.5"/>
<circle cx="96.021" cy="80.0208" r="4.44676" fill="#F8870D" fill-opacity="0.5"/>
<circle cx="96.021" cy="117.808" r="4.44676" fill="#F8870D" fill-opacity="0.5"/>
<circle cx="96.021" cy="155.595" r="4.44676" fill="#F8870D" fill-opacity="0.5"/>
<circle cx="96.021" cy="23.3403" r="4.44676" fill="#F8870D" fill-opacity="0.5"/>
<circle cx="96.021" cy="61.1273" r="4.44676" fill="#F8870D" fill-opacity="0.5"/>
<circle cx="96.021" cy="98.9143" r="4.44676" fill="#F8870D" fill-opacity="0.5"/>
<circle cx="96.021" cy="136.701" r="4.44676" fill="#F8870D" fill-opacity="0.5"/>
<circle cx="96.021" cy="174.488" r="4.44676" fill="#F8870D" fill-opacity="0.5"/>
<circle cx="118.916" cy="193.595" r="4.44676" fill="#F8870D" fill-opacity="0.5"/>
<circle cx="118.916" cy="212.488" r="4.44676" fill="#F8870D" fill-opacity="0.5"/>
<circle cx="4.44676" cy="193.595" r="4.44676" fill="#F8870D" fill-opacity="0.5"/>
<circle cx="4.44676" cy="212.488" r="4.44676" fill="#F8870D" fill-opacity="0.5"/>
<circle cx="141.808" cy="193.595" r="4.44676" fill="#F8870D" fill-opacity="0.5"/>
<circle cx="141.808" cy="212.488" r="4.44676" fill="#F8870D" fill-opacity="0.5"/>
<circle cx="27.3403" cy="193.595" r="4.44676" fill="#F8870D" fill-opacity="0.5"/>
<circle cx="27.3403" cy="212.488" r="4.44676" fill="#F8870D" fill-opacity="0.5"/>
<circle cx="164.701" cy="193.595" r="4.44676" fill="#F8870D" fill-opacity="0.5"/>
<circle cx="164.701" cy="212.488" r="4.44676" fill="#F8870D" fill-opacity="0.5"/>
<circle cx="50.2339" cy="193.595" r="4.44676" fill="#F8870D" fill-opacity="0.5"/>
<circle cx="50.2339" cy="212.488" r="4.44676" fill="#F8870D" fill-opacity="0.5"/>
<circle cx="187.595" cy="193.595" r="4.44676" fill="#F8870D" fill-opacity="0.5"/>
<circle cx="187.595" cy="212.488" r="4.44676" fill="#F8870D" fill-opacity="0.5"/>
<circle cx="73.1274" cy="193.595" r="4.44676" fill="#F8870D" fill-opacity="0.5"/>
<circle cx="73.1274" cy="212.488" r="4.44676" fill="#F8870D" fill-opacity="0.5"/>
<circle cx="210.49" cy="193.595" r="4.44676" fill="#F8870D" fill-opacity="0.5"/>
<circle cx="210.49" cy="212.488" r="4.44676" fill="#F8870D" fill-opacity="0.5"/>
<circle cx="96.021" cy="193.595" r="4.44676" fill="#F8870D" fill-opacity="0.5"/>
<circle cx="96.021" cy="212.488" r="4.44676" fill="#F8870D" fill-opacity="0.5"/>
</svg>
