<svg width="48" height="48" viewBox="0 0 48 48" fill="none" xmlns="http://www.w3.org/2000/svg">
<path d="M34 45.5H14C13.18 45.5 12.5 44.82 12.5 44C12.5 43.18 13.18 42.5 14 42.5H34C34.82 42.5 35.5 43.18 35.5 44C35.5 44.82 34.82 45.5 34 45.5Z" fill="white"/>
<path opacity="0.4" d="M36 38H12C7.58 38 4 34.42 4 30V12C4 7.58 7.58 4 12 4H36C40.42 4 44 7.58 44 12V30C44 34.42 40.42 38 36 38Z" fill="white"/>
<path d="M34.5202 18.1396H27.1602C26.3402 18.1396 25.6602 17.4596 25.6602 16.6396C25.6602 15.8196 26.3402 15.1396 27.1602 15.1396H34.5202C34.918 15.1396 35.2996 15.2977 35.5809 15.579C35.8622 15.8603 36.0202 16.2418 36.0202 16.6396C36.0202 17.0375 35.8622 17.419 35.5809 17.7003C35.2996 17.9816 34.918 18.1396 34.5202 18.1396ZM20.0002 18.6396C18.9002 18.6396 18.0002 17.7396 18.0002 16.6396C18.0002 15.5396 18.8802 14.6396 20.0002 14.6396C21.1002 14.6396 22.0002 15.5396 22.0002 16.6396C22.0002 17.7396 21.1202 18.6396 20.0002 18.6396ZM13.7002 18.6396C12.6002 18.6396 11.7002 17.7396 11.7002 16.6396C11.7002 15.5396 12.5802 14.6396 13.7002 14.6396H13.7202C14.8202 14.6396 15.7202 15.5396 15.7202 16.6396C15.7202 17.7396 14.8002 18.6396 13.7002 18.6396ZM34.5202 29.7196H13.5002C12.6802 29.7196 11.9802 29.0396 11.9802 28.2196C11.9802 27.3996 12.6402 26.7196 13.4602 26.7196H34.5202C34.918 26.7196 35.2996 26.8777 35.5809 27.159C35.8622 27.4403 36.0202 27.8218 36.0202 28.2196C36.0202 28.6175 35.8622 28.999 35.5809 29.2803C35.2996 29.5616 34.918 29.7196 34.5202 29.7196Z" fill="white"/>
</svg>
