<svg width="229" height="380" viewBox="0 0 229 380" fill="none" xmlns="http://www.w3.org/2000/svg">
<circle cx="125.916" cy="199.447" r="4.44676" fill="#F8870D" fill-opacity="0.5"/>
<circle cx="125.916" cy="237.234" r="4.44676" fill="#F8870D" fill-opacity="0.5"/>
<circle cx="125.916" cy="275.021" r="4.44676" fill="#F8870D" fill-opacity="0.5"/>
<circle cx="125.916" cy="312.808" r="4.44676" fill="#F8870D" fill-opacity="0.5"/>
<circle cx="125.916" cy="350.595" r="4.44676" fill="#F8870D" fill-opacity="0.5"/>
<circle cx="125.916" cy="218.34" r="4.44676" fill="#F8870D" fill-opacity="0.5"/>
<circle cx="125.916" cy="256.127" r="4.44676" fill="#F8870D" fill-opacity="0.5"/>
<circle cx="125.916" cy="293.915" r="4.44676" fill="#F8870D" fill-opacity="0.5"/>
<circle cx="125.916" cy="331.702" r="4.44676" fill="#F8870D" fill-opacity="0.5"/>
<circle cx="125.916" cy="369.488" r="4.44676" fill="#F8870D" fill-opacity="0.5"/>
<circle cx="11.4468" cy="199.447" r="4.44676" fill="#F8870D" fill-opacity="0.5"/>
<circle cx="11.4468" cy="237.234" r="4.44676" fill="#F8870D" fill-opacity="0.5"/>
<circle cx="11.4468" cy="275.021" r="4.44676" fill="#F8870D" fill-opacity="0.5"/>
<circle cx="11.4468" cy="312.808" r="4.44676" fill="#F8870D" fill-opacity="0.5"/>
<circle cx="11.4468" cy="350.595" r="4.44676" fill="#F8870D" fill-opacity="0.5"/>
<circle cx="11.4468" cy="218.34" r="4.44676" fill="#F8870D" fill-opacity="0.5"/>
<circle cx="11.4468" cy="256.127" r="4.44676" fill="#F8870D" fill-opacity="0.5"/>
<circle cx="11.4468" cy="293.915" r="4.44676" fill="#F8870D" fill-opacity="0.5"/>
<circle cx="11.4468" cy="331.701" r="4.44676" fill="#F8870D" fill-opacity="0.5"/>
<circle cx="11.4468" cy="369.488" r="4.44676" fill="#F8870D" fill-opacity="0.5"/>
<circle cx="148.808" cy="199.447" r="4.44676" fill="#F8870D" fill-opacity="0.5"/>
<circle cx="148.808" cy="237.234" r="4.44676" fill="#F8870D" fill-opacity="0.5"/>
<circle cx="148.808" cy="275.021" r="4.44676" fill="#F8870D" fill-opacity="0.5"/>
<circle cx="148.808" cy="312.808" r="4.44676" fill="#F8870D" fill-opacity="0.5"/>
<circle cx="148.808" cy="350.595" r="4.44676" fill="#F8870D" fill-opacity="0.5"/>
<circle cx="148.808" cy="218.34" r="4.44676" fill="#F8870D" fill-opacity="0.5"/>
<circle cx="148.808" cy="256.127" r="4.44676" fill="#F8870D" fill-opacity="0.5"/>
<circle cx="148.808" cy="293.915" r="4.44676" fill="#F8870D" fill-opacity="0.5"/>
<circle cx="148.808" cy="331.701" r="4.44676" fill="#F8870D" fill-opacity="0.5"/>
<circle cx="148.808" cy="369.488" r="4.44676" fill="#F8870D" fill-opacity="0.5"/>
<circle cx="34.3413" cy="199.447" r="4.44676" fill="#F8870D" fill-opacity="0.5"/>
<circle cx="34.3413" cy="237.234" r="4.44676" fill="#F8870D" fill-opacity="0.5"/>
<circle cx="34.3413" cy="275.021" r="4.44676" fill="#F8870D" fill-opacity="0.5"/>
<circle cx="34.3413" cy="312.808" r="4.44676" fill="#F8870D" fill-opacity="0.5"/>
<circle cx="34.3413" cy="350.595" r="4.44676" fill="#F8870D" fill-opacity="0.5"/>
<circle cx="34.3413" cy="218.34" r="4.44676" fill="#F8870D" fill-opacity="0.5"/>
<circle cx="34.3413" cy="256.127" r="4.44676" fill="#F8870D" fill-opacity="0.5"/>
<circle cx="34.3413" cy="293.915" r="4.44676" fill="#F8870D" fill-opacity="0.5"/>
<circle cx="34.3413" cy="331.702" r="4.44676" fill="#F8870D" fill-opacity="0.5"/>
<circle cx="34.3413" cy="369.488" r="4.44676" fill="#F8870D" fill-opacity="0.5"/>
<circle cx="171.701" cy="199.447" r="4.44676" fill="#F8870D" fill-opacity="0.5"/>
<circle cx="171.701" cy="237.234" r="4.44676" fill="#F8870D" fill-opacity="0.5"/>
<circle cx="171.701" cy="275.021" r="4.44676" fill="#F8870D" fill-opacity="0.5"/>
<circle cx="171.701" cy="312.808" r="4.44676" fill="#F8870D" fill-opacity="0.5"/>
<circle cx="171.701" cy="350.595" r="4.44676" fill="#F8870D" fill-opacity="0.5"/>
<circle cx="171.701" cy="218.34" r="4.44676" fill="#F8870D" fill-opacity="0.5"/>
<circle cx="171.701" cy="256.127" r="4.44676" fill="#F8870D" fill-opacity="0.5"/>
<circle cx="171.701" cy="293.915" r="4.44676" fill="#F8870D" fill-opacity="0.5"/>
<circle cx="171.701" cy="331.702" r="4.44676" fill="#F8870D" fill-opacity="0.5"/>
<circle cx="171.701" cy="369.488" r="4.44676" fill="#F8870D" fill-opacity="0.5"/>
<circle cx="57.2339" cy="199.447" r="4.44676" fill="#F8870D" fill-opacity="0.5"/>
<circle cx="57.2339" cy="237.234" r="4.44676" fill="#F8870D" fill-opacity="0.5"/>
<circle cx="57.2339" cy="275.021" r="4.44676" fill="#F8870D" fill-opacity="0.5"/>
<circle cx="57.2339" cy="312.808" r="4.44676" fill="#F8870D" fill-opacity="0.5"/>
<circle cx="57.2339" cy="350.595" r="4.44676" fill="#F8870D" fill-opacity="0.5"/>
<circle cx="57.2339" cy="218.34" r="4.44676" fill="#F8870D" fill-opacity="0.5"/>
<circle cx="57.2339" cy="256.127" r="4.44676" fill="#F8870D" fill-opacity="0.5"/>
<circle cx="57.2339" cy="293.915" r="4.44676" fill="#F8870D" fill-opacity="0.5"/>
<circle cx="57.2339" cy="331.701" r="4.44676" fill="#F8870D" fill-opacity="0.5"/>
<circle cx="57.2339" cy="369.488" r="4.44676" fill="#F8870D" fill-opacity="0.5"/>
<circle cx="194.595" cy="199.447" r="4.44676" fill="#F8870D" fill-opacity="0.5"/>
<circle cx="194.595" cy="237.234" r="4.44676" fill="#F8870D" fill-opacity="0.5"/>
<circle cx="194.595" cy="275.021" r="4.44676" fill="#F8870D" fill-opacity="0.5"/>
<circle cx="194.595" cy="312.808" r="4.44676" fill="#F8870D" fill-opacity="0.5"/>
<circle cx="194.595" cy="350.595" r="4.44676" fill="#F8870D" fill-opacity="0.5"/>
<circle cx="194.595" cy="218.34" r="4.44676" fill="#F8870D" fill-opacity="0.5"/>
<circle cx="194.595" cy="256.127" r="4.44676" fill="#F8870D" fill-opacity="0.5"/>
<circle cx="194.595" cy="293.915" r="4.44676" fill="#F8870D" fill-opacity="0.5"/>
<circle cx="194.595" cy="331.701" r="4.44676" fill="#F8870D" fill-opacity="0.5"/>
<circle cx="194.595" cy="369.488" r="4.44676" fill="#F8870D" fill-opacity="0.5"/>
<circle cx="80.1264" cy="199.447" r="4.44676" fill="#F8870D" fill-opacity="0.5"/>
<circle cx="80.1264" cy="237.234" r="4.44676" fill="#F8870D" fill-opacity="0.5"/>
<circle cx="80.1264" cy="275.021" r="4.44676" fill="#F8870D" fill-opacity="0.5"/>
<circle cx="80.1264" cy="312.808" r="4.44676" fill="#F8870D" fill-opacity="0.5"/>
<circle cx="80.1264" cy="350.595" r="4.44676" fill="#F8870D" fill-opacity="0.5"/>
<circle cx="80.1264" cy="218.34" r="4.44676" fill="#F8870D" fill-opacity="0.5"/>
<circle cx="80.1264" cy="256.127" r="4.44676" fill="#F8870D" fill-opacity="0.5"/>
<circle cx="80.1264" cy="293.915" r="4.44676" fill="#F8870D" fill-opacity="0.5"/>
<circle cx="80.1264" cy="331.702" r="4.44676" fill="#F8870D" fill-opacity="0.5"/>
<circle cx="80.1264" cy="369.488" r="4.44676" fill="#F8870D" fill-opacity="0.5"/>
<circle cx="217.49" cy="199.447" r="4.44676" fill="#F8870D" fill-opacity="0.5"/>
<circle cx="217.49" cy="237.234" r="4.44676" fill="#F8870D" fill-opacity="0.5"/>
<circle cx="217.49" cy="275.021" r="4.44676" fill="#F8870D" fill-opacity="0.5"/>
<circle cx="217.49" cy="312.808" r="4.44676" fill="#F8870D" fill-opacity="0.5"/>
<circle cx="217.49" cy="350.595" r="4.44676" fill="#F8870D" fill-opacity="0.5"/>
<circle cx="217.49" cy="218.34" r="4.44676" fill="#F8870D" fill-opacity="0.5"/>
<circle cx="217.49" cy="256.127" r="4.44676" fill="#F8870D" fill-opacity="0.5"/>
<circle cx="217.49" cy="293.915" r="4.44676" fill="#F8870D" fill-opacity="0.5"/>
<circle cx="217.49" cy="331.702" r="4.44676" fill="#F8870D" fill-opacity="0.5"/>
<circle cx="217.49" cy="369.488" r="4.44676" fill="#F8870D" fill-opacity="0.5"/>
<circle cx="103.021" cy="199.447" r="4.44676" fill="#F8870D" fill-opacity="0.5"/>
<circle cx="103.021" cy="237.234" r="4.44676" fill="#F8870D" fill-opacity="0.5"/>
<circle cx="103.021" cy="275.021" r="4.44676" fill="#F8870D" fill-opacity="0.5"/>
<circle cx="103.021" cy="312.808" r="4.44676" fill="#F8870D" fill-opacity="0.5"/>
<circle cx="103.021" cy="350.595" r="4.44676" fill="#F8870D" fill-opacity="0.5"/>
<circle cx="103.021" cy="218.34" r="4.44676" fill="#F8870D" fill-opacity="0.5"/>
<circle cx="103.021" cy="256.127" r="4.44676" fill="#F8870D" fill-opacity="0.5"/>
<circle cx="103.021" cy="293.915" r="4.44676" fill="#F8870D" fill-opacity="0.5"/>
<circle cx="103.021" cy="331.701" r="4.44676" fill="#F8870D" fill-opacity="0.5"/>
<circle cx="103.021" cy="369.488" r="4.44676" fill="#F8870D" fill-opacity="0.5"/>
<circle r="4.44676" transform="matrix(-1 0 0 1 102.084 9.44676)" fill="#F8870D" fill-opacity="0.5"/>
<circle r="4.44676" transform="matrix(-1 0 0 1 102.084 47.2339)" fill="#F8870D" fill-opacity="0.5"/>
<circle r="4.44676" transform="matrix(-1 0 0 1 102.084 85.021)" fill="#F8870D" fill-opacity="0.5"/>
<circle r="4.44676" transform="matrix(-1 0 0 1 102.084 122.808)" fill="#F8870D" fill-opacity="0.5"/>
<circle r="4.44676" transform="matrix(-1 0 0 1 102.084 160.595)" fill="#F8870D" fill-opacity="0.5"/>
<circle r="4.44676" transform="matrix(-1 0 0 1 102.084 28.3403)" fill="#F8870D" fill-opacity="0.5"/>
<circle r="4.44676" transform="matrix(-1 0 0 1 102.084 66.1274)" fill="#F8870D" fill-opacity="0.5"/>
<circle r="4.44676" transform="matrix(-1 0 0 1 102.084 103.915)" fill="#F8870D" fill-opacity="0.5"/>
<circle r="4.44676" transform="matrix(-1 0 0 1 102.084 141.702)" fill="#F8870D" fill-opacity="0.5"/>
<circle r="4.44676" transform="matrix(-1 0 0 1 102.084 179.488)" fill="#F8870D" fill-opacity="0.5"/>
<circle r="4.44676" transform="matrix(-1 0 0 1 216.553 160.595)" fill="#F8870D" fill-opacity="0.5"/>
<circle r="4.44676" transform="matrix(-1 0 0 1 216.553 179.488)" fill="#F8870D" fill-opacity="0.5"/>
<circle r="4.44676" transform="matrix(-1 0 0 1 79.1919 9.44676)" fill="#F8870D" fill-opacity="0.5"/>
<circle r="4.44676" transform="matrix(-1 0 0 1 79.1919 47.2339)" fill="#F8870D" fill-opacity="0.5"/>
<circle r="4.44676" transform="matrix(-1 0 0 1 79.1919 85.021)" fill="#F8870D" fill-opacity="0.5"/>
<circle r="4.44676" transform="matrix(-1 0 0 1 79.1919 122.808)" fill="#F8870D" fill-opacity="0.5"/>
<circle r="4.44676" transform="matrix(-1 0 0 1 79.1919 160.595)" fill="#F8870D" fill-opacity="0.5"/>
<circle r="4.44676" transform="matrix(-1 0 0 1 79.1919 28.3403)" fill="#F8870D" fill-opacity="0.5"/>
<circle r="4.44676" transform="matrix(-1 0 0 1 79.1919 66.1274)" fill="#F8870D" fill-opacity="0.5"/>
<circle r="4.44676" transform="matrix(-1 0 0 1 79.1919 103.915)" fill="#F8870D" fill-opacity="0.5"/>
<circle r="4.44676" transform="matrix(-1 0 0 1 79.1919 141.701)" fill="#F8870D" fill-opacity="0.5"/>
<circle r="4.44676" transform="matrix(-1 0 0 1 79.1919 179.488)" fill="#F8870D" fill-opacity="0.5"/>
<circle r="4.44676" transform="matrix(-1 0 0 1 193.659 160.595)" fill="#F8870D" fill-opacity="0.5"/>
<circle r="4.44676" transform="matrix(-1 0 0 1 193.659 179.488)" fill="#F8870D" fill-opacity="0.5"/>
<circle r="4.44676" transform="matrix(-1 0 0 1 56.2993 9.44676)" fill="#F8870D" fill-opacity="0.5"/>
<circle r="4.44676" transform="matrix(-1 0 0 1 56.2993 47.2339)" fill="#F8870D" fill-opacity="0.5"/>
<circle r="4.44676" transform="matrix(-1 0 0 1 56.2993 85.021)" fill="#F8870D" fill-opacity="0.5"/>
<circle r="4.44676" transform="matrix(-1 0 0 1 56.2993 122.808)" fill="#F8870D" fill-opacity="0.5"/>
<circle r="4.44676" transform="matrix(-1 0 0 1 56.2993 160.595)" fill="#F8870D" fill-opacity="0.5"/>
<circle r="4.44676" transform="matrix(-1 0 0 1 56.2993 28.3403)" fill="#F8870D" fill-opacity="0.5"/>
<circle r="4.44676" transform="matrix(-1 0 0 1 56.2993 66.1274)" fill="#F8870D" fill-opacity="0.5"/>
<circle r="4.44676" transform="matrix(-1 0 0 1 56.2993 103.915)" fill="#F8870D" fill-opacity="0.5"/>
<circle r="4.44676" transform="matrix(-1 0 0 1 56.2993 141.702)" fill="#F8870D" fill-opacity="0.5"/>
<circle r="4.44676" transform="matrix(-1 0 0 1 56.2993 179.488)" fill="#F8870D" fill-opacity="0.5"/>
<circle r="4.44676" transform="matrix(-1 0 0 1 170.766 160.595)" fill="#F8870D" fill-opacity="0.5"/>
<circle r="4.44676" transform="matrix(-1 0 0 1 170.766 179.488)" fill="#F8870D" fill-opacity="0.5"/>
<circle r="4.44676" transform="matrix(-1 0 0 1 33.4048 9.44676)" fill="#F8870D" fill-opacity="0.5"/>
<circle r="4.44676" transform="matrix(-1 0 0 1 33.4048 47.2339)" fill="#F8870D" fill-opacity="0.5"/>
<circle r="4.44676" transform="matrix(-1 0 0 1 33.4048 85.021)" fill="#F8870D" fill-opacity="0.5"/>
<circle r="4.44676" transform="matrix(-1 0 0 1 33.4048 122.808)" fill="#F8870D" fill-opacity="0.5"/>
<circle r="4.44676" transform="matrix(-1 0 0 1 33.4048 160.595)" fill="#F8870D" fill-opacity="0.5"/>
<circle r="4.44676" transform="matrix(-1 0 0 1 33.4048 28.3403)" fill="#F8870D" fill-opacity="0.5"/>
<circle r="4.44676" transform="matrix(-1 0 0 1 33.4048 66.1274)" fill="#F8870D" fill-opacity="0.5"/>
<circle r="4.44676" transform="matrix(-1 0 0 1 33.4048 103.915)" fill="#F8870D" fill-opacity="0.5"/>
<circle r="4.44676" transform="matrix(-1 0 0 1 33.4048 141.701)" fill="#F8870D" fill-opacity="0.5"/>
<circle r="4.44676" transform="matrix(-1 0 0 1 33.4048 179.488)" fill="#F8870D" fill-opacity="0.5"/>
<circle r="4.44676" transform="matrix(-1 0 0 1 147.874 160.595)" fill="#F8870D" fill-opacity="0.5"/>
<circle r="4.44676" transform="matrix(-1 0 0 1 147.874 179.488)" fill="#F8870D" fill-opacity="0.5"/>
<circle r="4.44676" transform="matrix(-1 0 0 1 10.5103 9.44676)" fill="#F8870D" fill-opacity="0.5"/>
<circle r="4.44676" transform="matrix(-1 0 0 1 10.5103 47.2339)" fill="#F8870D" fill-opacity="0.5"/>
<circle r="4.44676" transform="matrix(-1 0 0 1 10.5103 85.021)" fill="#F8870D" fill-opacity="0.5"/>
<circle r="4.44676" transform="matrix(-1 0 0 1 10.5103 122.808)" fill="#F8870D" fill-opacity="0.5"/>
<circle r="4.44676" transform="matrix(-1 0 0 1 10.5103 160.595)" fill="#F8870D" fill-opacity="0.5"/>
<circle r="4.44676" transform="matrix(-1 0 0 1 10.5103 28.3403)" fill="#F8870D" fill-opacity="0.5"/>
<circle r="4.44676" transform="matrix(-1 0 0 1 10.5103 66.1274)" fill="#F8870D" fill-opacity="0.5"/>
<circle r="4.44676" transform="matrix(-1 0 0 1 10.5103 103.915)" fill="#F8870D" fill-opacity="0.5"/>
<circle r="4.44676" transform="matrix(-1 0 0 1 10.5103 141.702)" fill="#F8870D" fill-opacity="0.5"/>
<circle r="4.44676" transform="matrix(-1 0 0 1 10.5103 179.488)" fill="#F8870D" fill-opacity="0.5"/>
<circle r="4.44676" transform="matrix(-1 0 0 1 124.979 160.595)" fill="#F8870D" fill-opacity="0.5"/>
<circle r="4.44676" transform="matrix(-1 0 0 1 124.979 179.488)" fill="#F8870D" fill-opacity="0.5"/>
</svg>
