<svg width="104" height="104" viewBox="0 0 104 104" fill="none" xmlns="http://www.w3.org/2000/svg">
<rect width="104" height="104" rx="52" fill="white"/>
<path d="M104 52C104 65.7913 98.5214 79.0177 88.7696 88.7696C79.0177 98.5214 65.7913 104 52 104C38.2087 104 24.9823 98.5214 15.2304 88.7696C5.47856 79.0177 0 65.7913 0 52C0 38.2087 5.47856 24.9823 15.2304 15.2304C24.9823 5.47856 38.2087 0 52 0C65.7913 0 79.0177 5.47856 88.7696 15.2304C98.5214 24.9823 104 38.2087 104 52V52ZM44.135 33.1045C43.649 32.7585 43.0772 32.5529 42.4822 32.5103C41.8872 32.4677 41.2919 32.5897 40.7616 32.8629C40.2312 33.1361 39.7864 33.55 39.4756 34.0592C39.1649 34.5685 39.0004 35.1534 39 35.75V68.25C39.0004 68.8466 39.1649 69.4315 39.4756 69.9408C39.7864 70.45 40.2312 70.8639 40.7616 71.1371C41.2919 71.4103 41.8872 71.5323 42.4822 71.4897C43.0772 71.4471 43.649 71.2415 44.135 70.8955L66.885 54.6455C67.3063 54.3449 67.6497 53.948 67.8866 53.4878C68.1236 53.0276 68.2472 52.5176 68.2472 52C68.2472 51.4824 68.1236 50.9723 67.8866 50.5122C67.6497 50.052 67.3063 49.6551 66.885 49.3545L44.135 33.1045V33.1045Z" fill="#F8870D"/>
</svg>
