<svg width="355" height="395" viewBox="0 0 355 395" fill="none" xmlns="http://www.w3.org/2000/svg">
<path d="M135.692 32.1299C154.364 -0.04329 200.636 -0.0433116 219.308 32.1299L227.807 46.7741C239.112 66.2533 259.853 78.2843 282.335 78.3742L299.216 78.4417C336.254 78.5899 359.474 118.83 341.024 151.21L332.642 165.922C321.494 185.488 321.494 209.512 332.642 229.078L341.024 243.789C359.474 276.17 336.254 316.41 299.216 316.558L282.335 316.626C259.853 316.716 239.112 328.747 227.807 348.226L219.308 362.87C200.636 395.043 154.364 395.043 135.692 362.87L127.193 348.226C115.888 328.747 95.1475 316.716 72.6649 316.626L55.7836 316.558C18.746 316.41 -4.47445 276.17 13.9756 243.79L22.358 229.078C33.5061 209.512 33.5061 185.488 22.3581 165.922L13.9756 151.211C-4.47443 118.83 18.746 78.5899 55.7835 78.4417L72.6649 78.3742C95.1475 78.2843 115.888 66.2533 127.193 46.7741L135.692 32.1299Z" fill="#F8870D" stroke="#F8870D" stroke-width="15"/>
</svg>
