<svg width="102" height="102" viewBox="0 0 102 102" fill="none" xmlns="http://www.w3.org/2000/svg">
<g clip-path="url(#clip0_1246_4223)">
<path d="M52.8208 55.235L62.6419 49.166L52.8208 45.3701V55.235Z" fill="#F8870D"/>
<path d="M49.1786 41.4652V28.9902L39.0843 45.3703L49.1786 41.4652Z" fill="#F8870D"/>
<path d="M52.8208 67.2722V74.1408L61.2504 62.7241L55.675 66.1848C54.7939 66.7101 53.8281 67.078 52.8208 67.2722V67.2722Z" fill="#F8870D"/>
<path d="M49.1783 55.235V45.3701L39.3608 49.1678L49.1783 55.235Z" fill="#F8870D"/>
<path d="M101.999 94.7419L92.7283 87.4033L92.8922 89.2502C92.8922 89.7333 92.7003 90.1966 92.3587 90.5382C92.0172 90.8798 91.5539 91.0717 91.0708 91.0717H68.4414C63.5026 93.2291 58.2057 94.4489 52.8208 94.669V96.536C52.8208 97.019 53.0127 97.4823 53.3543 97.8239C53.6959 98.1655 54.1592 98.3574 54.6422 98.3574H91.0708C91.5539 98.3574 92.0172 98.5493 92.3587 98.8909C92.7003 99.2325 92.8922 99.6957 92.8922 100.179V102L101.999 94.7419Z" fill="#F8870D"/>
<path d="M10.9285 10.9286H33.5579C38.4966 8.77117 43.7936 7.55131 49.1785 7.33125V5.46429C49.1785 4.98121 48.9866 4.51793 48.645 4.17634C48.3034 3.83476 47.8401 3.64286 47.3571 3.64286H10.9285C10.4454 3.64286 9.98212 3.45096 9.64054 3.10937C9.29895 2.76779 9.10705 2.3045 9.10705 1.82143V0L-9.15527e-05 7.25839L9.27098 14.5969L9.10705 12.75C9.10705 12.2669 9.29895 11.8036 9.64054 11.4621C9.98212 11.1205 10.4454 10.9286 10.9285 10.9286Z" fill="#F8870D"/>
<path d="M40.749 62.7241L49.1786 74.1408V67.2722C48.1739 67.0761 47.2111 66.7063 46.3335 66.1794L40.749 62.7241Z" fill="#F8870D"/>
<path d="M52.8208 41.4652L62.9133 45.3667L52.8208 28.9902V41.4652Z" fill="#F8870D"/>
<path d="M91.0712 51.0002C91.0712 43.0748 88.721 35.3274 84.3179 28.7377C79.9148 22.148 73.6565 17.0119 66.3344 13.979C59.0123 10.9461 50.9553 10.1525 43.1822 11.6987C35.4091 13.2449 28.269 17.0613 22.665 22.6654C17.0609 28.2695 13.2444 35.4095 11.6983 43.1826C10.1521 50.9557 10.9456 59.0127 13.9786 66.3348C17.0115 73.6569 22.1475 79.9152 28.7372 84.3183C35.3269 88.7214 43.0743 91.0716 50.9997 91.0716C61.6236 91.0595 71.809 86.8339 79.3212 79.3216C86.8334 71.8094 91.0591 61.6241 91.0712 51.0002V51.0002ZM50.9997 87.4287C43.7948 87.4287 36.7517 85.2922 30.7611 81.2894C24.7705 77.2866 20.1013 71.5972 17.3441 64.9408C14.5869 58.2843 13.8655 50.9597 15.2711 43.8933C16.6767 36.8268 20.1462 30.3359 25.2408 25.2413C30.3355 20.1466 36.8264 16.6772 43.8929 15.2716C50.9593 13.8659 58.2839 14.5874 64.9403 17.3445C71.5968 20.1017 77.2862 24.7709 81.289 30.7615C85.2918 36.7522 87.4283 43.7953 87.4283 51.0002C87.4172 60.6582 83.5757 69.9175 76.7464 76.7468C69.9171 83.5761 60.6578 87.4176 50.9997 87.4287V87.4287Z" fill="#F8870D"/>
<path d="M50.9998 18.2144C44.5154 18.2144 38.1766 20.1372 32.785 23.7397C27.3935 27.3423 23.1912 32.4627 20.7098 38.4535C18.2283 44.4443 17.579 51.0364 18.8441 57.3962C20.1091 63.7561 23.2316 69.5979 27.8168 74.1831C32.402 78.7682 38.2438 81.8908 44.6036 83.1558C50.9634 84.4209 57.5555 83.7716 63.5464 81.2901C69.5372 78.8086 74.6576 74.6064 78.2601 69.2148C81.8627 63.8233 83.7855 57.4845 83.7855 51.0001C83.7754 42.3079 80.3179 33.9746 74.1716 27.8283C68.0253 21.6819 59.692 18.2245 50.9998 18.2144V18.2144ZM66.8462 61.2839L54.0634 78.6002C53.7098 79.0785 53.2489 79.4672 52.7178 79.7351C52.1867 80.0029 51.6001 80.1425 51.0053 80.1425C50.4104 80.1425 49.8239 80.0029 49.2927 79.7351C48.7616 79.4672 48.3007 79.0785 47.9471 78.6002L35.1534 61.2839C34.774 60.7632 34.5871 60.1271 34.6246 59.484C34.6621 58.8409 34.9217 58.2308 35.359 57.7578C35.7963 57.2848 36.3843 56.9783 37.0224 56.8905C37.6606 56.8028 38.3094 56.9393 38.8582 57.2767L48.2349 63.0871C49.0707 63.5864 50.0262 63.85 50.9998 63.85C51.9734 63.85 52.9289 63.5864 53.7647 63.0871L63.1305 57.284C63.6792 56.9466 64.3281 56.8101 64.9663 56.8978C65.6044 56.9855 66.1924 57.2921 66.6297 57.7651C67.067 58.2381 67.3265 58.8482 67.364 59.4913C67.4015 60.1344 67.2147 60.7705 66.8353 61.2911L66.8462 61.2839ZM66.9482 50.7888L52.6045 59.6519C52.1228 59.9495 51.5678 60.1071 51.0016 60.1071C50.4354 60.1071 49.8804 59.9495 49.3988 59.6519L35.0568 50.7851C34.3677 50.3571 33.876 49.6737 33.6893 48.8843C33.5026 48.0948 33.6361 47.2635 34.0605 46.5722L48.3988 23.3144C48.6723 22.8703 49.0548 22.5036 49.5101 22.2492C49.9654 21.9949 50.4783 21.8614 50.9998 21.8614C51.5213 21.8614 52.0342 21.9949 52.4895 22.2492C52.9448 22.5036 53.3274 22.8703 53.6008 23.3144L67.9391 46.5758C68.3635 47.2672 68.497 48.0984 68.3103 48.8879C68.1236 49.6774 67.6319 50.3608 66.9428 50.7888H66.9482Z" fill="#F8870D"/>
</g>
<defs>
<clipPath id="clip0_1246_4223">
<rect width="102" height="102" fill="white"/>
</clipPath>
</defs>
</svg>
