<svg width="80" height="80" viewBox="0 0 80 80" fill="none" xmlns="http://www.w3.org/2000/svg">
<g clip-path="url(#clip0_1246_4239)">
<path d="M58.7498 28.2822C47.1183 28.2822 37.6562 37.7441 37.6562 49.3757C37.6562 61.0072 47.1181 70.4691 58.7497 70.4691C70.3812 70.4691 79.9994 61.0072 79.9994 49.3757C79.9994 37.7441 70.3814 28.2822 58.7498 28.2822ZM61.1552 60.6708C61.1348 60.6783 61.1136 60.6749 61.0933 60.6819V63.438C61.0933 64.7335 60.045 65.7818 58.7495 65.7818C57.4541 65.7818 56.4058 64.7335 56.4058 63.438V60.666C54.8622 60.1444 53.3831 59.1547 52.1187 57.6474C51.2856 56.6563 51.4138 55.1777 52.4072 54.3469C53.3983 53.5138 54.8814 53.6419 55.7077 54.6354C56.9481 56.1116 58.3512 56.6975 59.5506 56.2672C60.473 55.9308 61.0933 55.045 61.0933 54.0632C61.0933 52.77 60.0427 51.7194 58.7495 51.7194C54.8723 51.7194 51.7184 48.5653 51.7184 44.6883C51.7184 41.8571 53.403 39.3141 56.01 38.2111C56.1391 38.1564 56.2758 38.1596 56.4059 38.113V35.3135C56.4059 34.018 57.4542 32.9697 58.7497 32.9697C60.0452 32.9697 61.0934 34.018 61.0934 35.3135V38.1172C62.307 38.5272 63.4905 39.1789 64.5472 40.2024C65.4764 41.1019 65.4994 42.585 64.5975 43.5166C63.698 44.4458 62.2125 44.4664 61.2833 43.5669C60.1434 42.4614 58.8823 42.0814 57.8386 42.5279C56.9689 42.8963 56.4058 43.7432 56.4058 44.6885C56.4058 45.9816 57.4564 47.0322 58.7495 47.0322C62.6267 47.0322 65.7806 50.1863 65.7806 54.0633C65.7809 57.0088 63.9223 59.6638 61.1552 60.6708Z" fill="#F8870D"/>
<path d="M2.34438 51.7192C1.04891 51.7192 0.00062561 52.7675 0.00062561 54.063V77.6564C0.00062561 78.9519 1.04891 80.0002 2.34438 80.0002H9.37547V51.7192H2.34438Z" fill="#F8870D"/>
<path d="M55.5867 14.6288L39.1806 0.566484C38.3063 -0.188828 37.0063 -0.188828 36.1319 0.566484L19.7259 14.6288C18.9798 15.2651 18.712 16.2996 19.053 17.2198C19.3917 18.1399 20.2683 18.751 21.2503 18.751H28.2814C28.2814 39.0134 28.2814 59.7366 28.2814 80.0002C34.3192 80.0002 38.4934 80.0002 44.6875 80.0002C45.983 80.0002 47.0312 78.952 47.0312 77.6565V72.3105C38.6966 68.0341 32.9689 59.3701 32.9689 49.3757C32.9689 39.3815 38.6967 30.7173 47.0312 26.4409V18.7512H54.0623C55.0442 18.7512 55.9209 18.1401 56.2597 17.2199C56.6008 16.2996 56.333 15.2651 55.5867 14.6288Z" fill="#F8870D"/>
<path d="M16.5631 32.9697C15.2677 32.9697 14.2194 34.018 14.2194 35.3135V51.7196V80.0002C17.6428 80.0002 20.2703 80.0002 23.5942 80.0002V32.9697H16.5631Z" fill="#F8870D"/>
</g>
<defs>
<clipPath id="clip0_1246_4239">
<rect width="80" height="80" fill="white"/>
</clipPath>
</defs>
</svg>
