<svg width="97" height="97" viewBox="0 0 97 97" fill="none" xmlns="http://www.w3.org/2000/svg">
<path d="M53.0469 62.1406H48.5V51.5312H36.375V62.1406H31.8281L42.4375 74.2656L53.0469 62.1406Z" fill="#F8870D"/>
<path d="M34.7775 29.6032L37.8906 32.7163V44.9686C38.8773 45.1838 39.8897 45.3202 40.9219 45.393V19.2833C40.0201 18.7589 39.4062 17.7919 39.4062 16.6719C39.4062 14.9971 40.7627 13.6406 42.4375 13.6406C44.1123 13.6406 45.4688 14.9971 45.4688 16.6719C45.4688 17.7904 44.8549 18.7574 43.9531 19.2833V45.393C44.9853 45.3202 45.9977 45.1838 46.9844 44.9686V32.7163L51.5312 28.1694V23.8302C50.6295 23.3058 50.0156 22.3388 50.0156 21.2188C50.0156 19.544 51.3721 18.1875 53.0469 18.1875C54.7216 18.1875 56.0781 19.544 56.0781 21.2188C56.0781 22.3373 55.4643 23.3042 54.5625 23.8302V29.4243L50.0156 33.9712V44.0501C57.9863 40.9961 63.6562 33.2952 63.6562 24.25C63.6562 12.5312 54.1563 3.03125 42.4375 3.03125C30.7187 3.03125 21.2188 12.5312 21.2188 24.25H18.1875C18.1875 16.0186 22.3191 8.74364 28.6074 4.35742L25.7656 1.51562H16.6719L1.51562 9.09375V33.3438H30.3125C32.548 33.3438 34.3956 31.7281 34.7775 29.6032ZM28.7969 21.2188C28.7969 19.544 30.1534 18.1875 31.8281 18.1875C33.5029 18.1875 34.8594 19.544 34.8594 21.2188C34.8594 22.3373 34.2455 23.3042 33.3438 23.8302V25.4307C32.5374 24.7047 31.4826 24.25 30.3125 24.25V23.8302C29.4107 23.3042 28.7969 22.3373 28.7969 21.2188Z" fill="#F8870D"/>
<path d="M34.4956 33.6089C33.803 35.2336 32.1919 36.3749 30.3125 36.3749H25.0351C27.4495 39.823 30.8657 42.5208 34.8594 44.05V33.9711L34.4956 33.6089Z" fill="#F8870D"/>
<path d="M86.3906 78.8125L80.3281 72.75H59.8672C56.9375 72.75 54.5625 75.125 54.5625 78.0547C54.5625 80.7298 56.5495 82.9198 59.1245 83.2851C59.1655 82.4849 59.8141 81.8438 60.625 81.8438H72.75C73.5866 81.8438 74.2656 82.5227 74.2656 83.3594C74.2656 84.196 73.5866 84.875 72.75 84.875H60.625C59.7884 84.875 59.1094 84.196 59.1094 83.3594H48.5L29.7502 74.7052C29.1227 74.4157 28.4392 74.2656 27.7465 74.2656H27.5162C24.8744 74.2656 22.7344 76.4057 22.7344 79.0474C22.7344 80.7752 23.6665 82.3682 25.1715 83.2154L46.9844 95.4844H95.4844V78.8125H86.3906Z" fill="#F8870D"/>
</svg>
