<svg width="99" height="99" viewBox="0 0 99 99" fill="none" xmlns="http://www.w3.org/2000/svg">
<path d="M10.312 96.9375H51.562C53.7501 96.9375 55.8485 96.0683 57.3956 94.5211C58.9428 92.974 59.812 90.8755 59.812 88.6875H2.06201C2.06201 90.8755 2.93121 92.974 4.47838 94.5211C6.02556 96.0683 8.12398 96.9375 10.312 96.9375ZM28.8745 90.75H32.9995C33.5465 90.75 34.0711 90.9673 34.4579 91.3541C34.8447 91.7409 35.062 92.2655 35.062 92.8125C35.062 93.3595 34.8447 93.8841 34.4579 94.2709C34.0711 94.6577 33.5465 94.875 32.9995 94.875H28.8745C28.3275 94.875 27.8029 94.6577 27.4161 94.2709C27.0293 93.8841 26.812 93.3595 26.812 92.8125C26.812 92.2655 27.0293 91.7409 27.4161 91.3541C27.8029 90.9673 28.3275 90.75 28.8745 90.75Z" fill="#F8870D"/>
<path d="M54.6556 63.9375H59.8118V55.6875H54.9031C52.9231 63.3187 51.3968 59.5856 54.6556 63.9375Z" fill="#F8870D"/>
<path d="M54.9031 43.3125H59.8118V35.0625H54.6556C51.3968 39.435 52.9231 35.7019 54.9031 43.3125Z" fill="#F8870D"/>
<path d="M51.562 2.0625H10.312C8.12398 2.0625 6.02556 2.93169 4.47838 4.47887C2.93121 6.02604 2.06201 8.12446 2.06201 10.3125H59.812C59.812 8.12446 58.9428 6.02604 57.3956 4.47887C55.8485 2.93169 53.7501 2.0625 51.562 2.0625Z" fill="#F8870D"/>
<path d="M32.999 43.3125H28.874V47.4375H32.999C33.546 47.4375 34.0706 47.2202 34.4574 46.8334C34.8442 46.4466 35.0615 45.922 35.0615 45.375C35.0615 44.828 34.8442 44.3034 34.4574 43.9166C34.0706 43.5298 33.546 43.3125 32.999 43.3125Z" fill="#F8870D"/>
<path d="M35.0615 51.5625H28.874V55.6875H35.0615C35.6085 55.6875 36.1331 55.4702 36.5199 55.0834C36.9067 54.6966 37.124 54.172 37.124 53.625C37.124 53.078 36.9067 52.5534 36.5199 52.1666C36.1331 51.7798 35.6085 51.5625 35.0615 51.5625Z" fill="#F8870D"/>
<path d="M84.9333 68.0625H59.812C51.562 68.0625 53.1089 68.7431 50.2626 64.9481L47.6845 61.5037C49.8267 58.5875 51.1639 55.159 51.562 51.5625H78.7458C79.2323 52.9386 80.1897 54.0985 81.4486 54.837C82.7076 55.5755 84.1871 55.8452 85.6257 55.5984C87.0643 55.3516 88.3693 54.6041 89.3101 53.4882C90.2509 52.3722 90.7669 50.9596 90.7669 49.5C90.7669 48.0404 90.2509 46.6278 89.3101 45.5118C88.3693 44.3959 87.0643 43.6484 85.6257 43.4016C84.1871 43.1548 82.7076 43.4245 81.4486 44.163C80.1897 44.9015 79.2323 46.0614 78.7458 47.4375H51.562C51.1944 43.8508 49.8931 40.4231 47.7876 37.4963L50.3658 34.0519C53.1089 30.2363 51.562 30.9375 59.812 30.9375H84.9333C85.4198 32.3136 86.3772 33.4735 87.6361 34.212C88.8951 34.9505 90.3746 35.2202 91.8132 34.9734C93.2518 34.7266 94.5568 33.9791 95.4976 32.8632C96.4384 31.7472 96.9544 30.3346 96.9544 28.875C96.9544 27.4154 96.4384 26.0028 95.4976 24.8868C94.5568 23.7709 93.2518 23.0234 91.8132 22.7766C90.3746 22.5298 88.8951 22.7995 87.6361 23.538C86.3772 24.2765 85.4198 25.4364 84.9333 26.8125H59.812V14.4375H2.06201V84.5625H59.812V72.1875H84.9333C85.4198 73.5636 86.3772 74.7235 87.6361 75.462C88.8951 76.2005 90.3746 76.4702 91.8132 76.2234C93.2518 75.9766 94.5568 75.2291 95.4976 74.1132C96.4384 72.9972 96.9544 71.5846 96.9544 70.125C96.9544 68.6654 96.4384 67.2528 95.4976 66.1368C94.5568 65.0209 93.2518 64.2734 91.8132 64.0266C90.3746 63.7798 88.8951 64.0495 87.6361 64.788C86.3772 65.5265 85.4198 66.6864 84.9333 68.0625ZM84.562 47.4375C85.109 47.4375 85.6336 47.6548 86.0204 48.0416C86.4072 48.4284 86.6245 48.953 86.6245 49.5C86.6245 50.047 86.4072 50.5716 86.0204 50.9584C85.6336 51.3452 85.109 51.5625 84.562 51.5625C84.015 51.5625 83.4904 51.3452 83.1036 50.9584C82.7168 50.5716 82.4995 50.047 82.4995 49.5C82.4995 48.953 82.7168 48.4284 83.1036 48.0416C83.4904 47.6548 84.015 47.4375 84.562 47.4375ZM90.7495 26.8125C91.2965 26.8125 91.8211 27.0298 92.2079 27.4166C92.5947 27.8034 92.812 28.328 92.812 28.875C92.812 29.422 92.5947 29.9466 92.2079 30.3334C91.8211 30.7202 91.2965 30.9375 90.7495 30.9375C90.2025 30.9375 89.6779 30.7202 89.2911 30.3334C88.9043 29.9466 88.687 29.422 88.687 28.875C88.687 28.328 88.9043 27.8034 89.2911 27.4166C89.6779 27.0298 90.2025 26.8125 90.7495 26.8125ZM6.18701 49.5C6.18473 44.7212 7.56597 40.0439 10.1639 36.033C12.7619 32.0221 16.4655 28.849 20.8275 26.897C25.1894 24.9451 30.0232 24.2976 34.7451 25.0329C39.467 25.7682 43.8751 27.8548 47.437 31.0406L44.962 34.3406C42.0157 31.6226 38.3413 29.822 34.3879 29.159C30.4346 28.4961 26.3738 28.9995 22.702 30.6078C19.0302 32.216 15.9067 34.8594 13.7133 38.2146C11.52 41.5698 10.3519 45.4915 10.3519 49.5C10.3519 53.5085 11.52 57.4302 13.7133 60.7854C15.9067 64.1406 19.0302 66.784 22.702 68.3922C26.3738 70.0005 30.4346 70.5039 34.3879 69.841C38.3413 69.178 42.0157 67.3774 44.962 64.6594L47.437 68.0625C43.8686 71.2543 39.451 73.3426 34.7196 74.0744C29.9882 74.8061 25.1462 74.1499 20.7802 72.1852C16.4143 70.2206 12.7119 67.0318 10.1217 63.0053C7.5315 58.9789 6.16473 54.2876 6.18701 49.5ZM28.8745 59.8125V61.875C28.8745 62.422 28.6572 62.9466 28.2704 63.3334C27.8836 63.7202 27.359 63.9375 26.812 63.9375C26.265 63.9375 25.7404 63.7202 25.3536 63.3334C24.9668 62.9466 24.7495 62.422 24.7495 61.875V59.8125H22.687C22.14 59.8125 21.6154 59.5952 21.2286 59.2084C20.8418 58.8216 20.6245 58.297 20.6245 57.75C20.6245 57.203 20.8418 56.6784 21.2286 56.2916C21.6154 55.9048 22.14 55.6875 22.687 55.6875H24.7495V43.3125H22.687C22.14 43.3125 21.6154 43.0952 21.2286 42.7084C20.8418 42.3216 20.6245 41.797 20.6245 41.25C20.6245 40.703 20.8418 40.1784 21.2286 39.7916C21.6154 39.4048 22.14 39.1875 22.687 39.1875H24.7495V37.125C24.7495 36.578 24.9668 36.0534 25.3536 35.6666C25.7404 35.2798 26.265 35.0625 26.812 35.0625C27.359 35.0625 27.8836 35.2798 28.2704 35.6666C28.6572 36.0534 28.8745 36.578 28.8745 37.125V39.1875H30.937V37.125C30.937 36.578 31.1543 36.0534 31.5411 35.6666C31.9279 35.2798 32.4525 35.0625 32.9995 35.0625C33.5465 35.0625 34.0711 35.2798 34.4579 35.6666C34.8447 36.0534 35.062 36.578 35.062 37.125V39.5588C35.9094 39.8611 36.6806 40.3447 37.322 40.9757C37.9633 41.6067 38.4594 42.3699 38.7755 43.2123C39.0916 44.0546 39.2202 44.9558 39.1524 45.8529C39.0845 46.7501 38.8218 47.6217 38.3826 48.4069C39.5115 49.1262 40.3766 50.1922 40.8482 51.4449C41.3199 52.6976 41.3725 54.0694 40.9984 55.3546C40.6242 56.6398 39.8434 57.769 38.773 58.5728C37.7027 59.3765 36.4006 59.8115 35.062 59.8125V61.875C35.062 62.422 34.8447 62.9466 34.4579 63.3334C34.0711 63.7202 33.5465 63.9375 32.9995 63.9375C32.4525 63.9375 31.9279 63.7202 31.5411 63.3334C31.1543 62.9466 30.937 62.422 30.937 61.875V59.8125H28.8745ZM90.7495 72.1875C90.2025 72.1875 89.6779 71.9702 89.2911 71.5834C88.9043 71.1966 88.687 70.672 88.687 70.125C88.687 69.578 88.9043 69.0534 89.2911 68.6666C89.6779 68.2798 90.2025 68.0625 90.7495 68.0625C91.2965 68.0625 91.8211 68.2798 92.2079 68.6666C92.5947 69.0534 92.812 69.578 92.812 70.125C92.812 70.672 92.5947 71.1966 92.2079 71.5834C91.8211 71.9702 91.2965 72.1875 90.7495 72.1875Z" fill="#F8870D"/>
</svg>
