<svg width="125" height="125" viewBox="0 0 125 125" fill="none" xmlns="http://www.w3.org/2000/svg">
<path d="M84.9824 35.512C84.9824 23.0985 74.8839 13 62.4704 13C50.0576 13 39.9591 23.0985 39.9591 35.512C39.9591 47.9248 50.0576 58.0233 62.4704 58.0233C74.8839 58.0233 84.9824 47.9248 84.9824 35.512ZM70.0476 42.7071C69.6065 43.5221 69.0219 44.18 68.2953 44.6807C67.5687 45.1815 66.7341 45.5456 65.7915 45.7706C65.648 45.8054 65.5029 45.8318 65.3579 45.8613V49.8531H59.5609V45.7631C59.0881 45.6664 58.6213 45.5531 58.1628 45.4172C57.3969 45.1921 56.6552 44.9217 55.9384 44.6075C55.2217 44.2933 54.5592 43.9299 53.9505 43.5175L56.0714 39.3052C56.1499 39.4041 56.4052 39.5899 56.8373 39.8649C57.2685 40.1406 57.8041 40.4147 58.4423 40.6897C59.0805 40.9654 59.7928 41.2101 60.5783 41.4261C61.3631 41.6429 62.1584 41.7501 62.9643 41.7501C64.6729 41.7501 65.5271 41.2305 65.5271 40.1889C65.5271 39.7969 65.3987 39.4729 65.1442 39.2168C64.8889 38.9623 64.5354 38.7311 64.0837 38.5249C63.6313 38.3187 63.0973 38.1277 62.4779 37.9502C61.8593 37.7742 61.1863 37.5778 60.4605 37.361C59.4982 37.0672 58.6636 36.7477 57.9566 36.404C57.2497 36.0611 56.6651 35.6631 56.2043 35.2114C55.7428 34.7597 55.3984 34.2393 55.1733 33.6502C54.9475 33.061 54.8342 32.3737 54.8342 31.5882C54.8342 30.4884 55.0404 29.5164 55.4528 28.6719C55.8652 27.8275 56.4249 27.116 57.1318 26.5359C57.8313 25.9634 58.6409 25.5306 59.5609 25.236V21.211H65.3579V25.1318C65.8307 25.2436 66.29 25.3712 66.7348 25.52C67.3829 25.736 67.9864 25.9815 68.5461 26.2564C69.1058 26.5314 69.6216 26.8063 70.093 27.0812L67.972 31.0874C67.9131 31.0089 67.7069 30.8616 67.3534 30.6448C67 30.4295 66.5581 30.2037 66.0279 29.9673C65.4977 29.7316 64.9183 29.5262 64.2899 29.3494C63.6615 29.1727 63.0331 29.0843 62.4047 29.0843C60.6765 29.0843 59.8124 29.6637 59.8124 30.8223C59.8124 31.175 59.9053 31.4704 60.0927 31.7053C60.2785 31.9417 60.5534 32.1524 60.9174 32.339C61.28 32.5255 61.737 32.697 62.2868 32.8541C62.8359 33.0119 63.4742 33.1887 64.2015 33.3843C65.2031 33.66 66.1057 33.9591 66.9108 34.2831C67.716 34.6072 68.3988 35.0097 68.9585 35.4901C69.5182 35.972 69.9494 36.5559 70.2546 37.2432C70.559 37.9305 70.7108 38.7553 70.7108 39.7176C70.7108 40.8959 70.4902 41.8929 70.0476 42.7071Z" fill="#F8870D"/>
<path d="M35.9576 64.497C34.3126 66.1163 34.2174 68.7441 35.6971 70.4775L47.5343 82.7203L43.3672 86.7499L21.2223 63.8474V38.37C21.2223 36.1011 19.3763 34.2559 17.1081 34.2559C14.8392 34.2559 12.994 36.1011 12.994 38.37V70.6422L33.3745 104.829V112H59.5724V82.0594L42.1535 64.5317C40.4548 62.8224 37.6752 62.8066 35.9576 64.497Z" fill="#F8870D"/>
<path d="M107.834 34.2559C105.566 34.2559 103.72 36.1011 103.72 38.37V63.8474L81.5746 86.7499L77.4076 82.7203L89.2448 70.4775C90.7244 68.7441 90.6293 66.1163 88.9842 64.497C87.2666 62.8066 84.4871 62.8217 82.7884 64.5317L65.3694 82.0594V112H91.5674V104.829L111.948 70.6422V38.37C111.948 36.1011 110.103 34.2559 107.834 34.2559Z" fill="#F8870D"/>
</svg>
