<svg width="99" height="99" viewBox="0 0 99 99" fill="none" xmlns="http://www.w3.org/2000/svg">
<g clip-path="url(#clip0_1246_4272)">
<path d="M49.5267 28.2017C51.0022 28.8291 52.431 29.5407 53.81 30.3327C54.8773 30.4123 56.3619 30.346 56.3616 28.9192C56.3616 28.9194 56.3005 1.40882 56.3005 1.40882C56.2985 0.507187 55.4667 -0.161063 54.5912 0.0340365C41.6229 2.92379 31.268 12.7929 27.6226 25.52C34.9857 24.3499 42.687 25.2719 49.5267 28.2017Z" fill="#F8870D"/>
<path d="M33.8353 31.148C-6.43782 30.8765 -12.3923 90.7326 26.4225 99.0063C27.0934 99.1573 27.7338 98.6482 27.7321 97.955L27.6733 71.5512C27.6719 70.958 27.1932 70.4777 26.6031 70.4777H22.9725C21.8046 70.4777 21.0993 69.1787 21.731 68.1912C37.8003 44.6112 29.999 44.6182 46.0714 68.191C46.7033 69.1785 45.998 70.4775 44.8301 70.4775H40.7293C40.1372 70.4775 39.6577 70.9607 39.6591 71.5558L39.7178 98.036C39.7194 98.7151 40.3399 99.229 41.0008 99.0887C80.2303 91.1522 74.3651 30.8015 33.8353 31.148Z" fill="#F8870D"/>
<path d="M98.9799 35.0618C98.7225 18.0369 86.8568 3.84257 70.9878 0.121752C70.1079 -0.0845625 69.2664 0.591809 69.2685 1.50021L69.3294 28.9257C69.3311 29.7032 69.9586 30.3328 70.732 30.3328H74.6213C75.7311 30.3328 76.4015 31.5672 75.8011 32.5056L68.3185 44.2042C73.0835 51.9142 75.0987 61.2459 73.989 70.266C88.6276 65.4152 99.2268 51.4049 98.9799 35.0618Z" fill="#F8870D"/>
</g>
<defs>
<clipPath id="clip0_1246_4272">
<rect width="99" height="99" fill="white"/>
</clipPath>
</defs>
</svg>
